<svg width="1500" height="1500" viewBox="0 0 1500 1500" fill="none" xmlns="http://www.w3.org/2000/svg">
<mask id="mask0_3324_16392" style="mask-type:alpha" maskUnits="userSpaceOnUse" x="214" y="214" width="1072" height="1072">
<circle cx="750" cy="750" r="536" fill="#D9D9D9"/>
</mask>
<g mask="url(#mask0_3324_16392)">
<path d="M1684 201.481H-182.54V566.862H1684V201.481Z" fill="#71AFDE"/>
<path d="M1684 932.229H-182.54V1297.61H1684V932.229Z" fill="#71AFDE"/>
<path d="M1684 566.863H-182.54V932.244H1684V566.863Z" fill="white"/>
<path d="M743.646 752.481L807.47 891.564C807.47 891.564 808.576 894.223 810.344 893.485C812.111 892.747 811.02 890.104 811.02 890.104L757.815 746.61M756.278 800.722C755.494 821.884 768.573 833.503 766.806 852.406C765.038 871.309 775.489 881.974 777.886 889.29C780.283 896.605 775.289 901.031 777.44 902.061C779.592 903.09 784.341 897.312 782.788 886.861C781.236 876.411 773.322 873.322 775.104 850.254C776.887 827.186 765.668 821.807 768.435 800.768" fill="#F5B31A"/>
<path d="M777.993 902.997C777.69 903 777.39 902.932 777.117 902.797C775.581 902.074 776.134 900.492 776.703 898.832C777.941 895.909 778.104 892.642 777.164 889.611C776.281 887.314 775.201 885.098 773.936 882.987C770.063 875.995 764.715 866.405 766.037 852.373C766.882 843.152 764.085 835.607 761.15 827.677C758.215 819.747 755.11 811.448 755.51 800.751H757.046C756.662 811.156 759.674 819.193 762.594 827.093C765.668 835.176 768.45 842.83 767.574 852.466C766.36 866.02 771.508 875.364 775.258 882.173C776.579 884.368 777.7 886.677 778.608 889.073C779.665 892.443 779.502 896.077 778.147 899.339C777.748 900.492 777.502 901.26 777.748 901.383C777.994 901.506 778.393 901.383 778.823 901.06C780.729 899.662 783.127 894.759 781.974 887.014C781.41 883.893 780.373 880.877 778.9 878.069C776.195 872.26 773.122 865.667 774.29 850.222C775.196 838.911 772.907 831.918 770.694 825.156C768.788 819.332 766.959 813.768 767.19 805.93L742.815 752.818L744.245 752.157L767.405 802.611C767.405 801.996 767.528 801.351 767.62 800.69L769.157 800.905C768.942 802.565 768.819 804.132 768.757 805.623L808.054 891.224C808.054 891.224 808.914 893.176 809.913 892.761C810.007 892.728 810.092 892.675 810.163 892.606C810.235 892.537 810.291 892.454 810.328 892.362C810.485 891.704 810.42 891.012 810.144 890.395L756.939 746.886L758.476 746.348L811.681 889.826C812.088 890.801 812.147 891.886 811.85 892.9C811.731 893.183 811.557 893.441 811.338 893.657C811.119 893.873 810.859 894.044 810.574 894.16C808.592 894.959 807.163 892.976 806.671 891.793L768.926 809.481C769.347 814.679 770.485 819.794 772.307 824.68C774.582 831.596 776.918 838.742 775.98 850.36C774.766 865.406 777.748 871.784 780.376 877.424C781.922 880.365 783.006 883.527 783.588 886.798C784.756 894.698 782.45 900.399 779.807 902.336C779.289 902.745 778.653 902.977 777.993 902.997V902.997Z" fill="#84361C"/>
<path d="M743.046 749.545L748.793 902.459C748.793 902.459 748.793 905.349 750.714 905.349C752.635 905.349 752.635 902.475 752.635 902.475L758.414 749.545M736.283 798.954C727.477 818.21 735.039 833.932 726.233 850.73C717.427 867.527 722.928 881.359 722.344 889.058C721.76 896.758 715.459 898.909 717.042 900.707C718.625 902.505 725.234 898.955 727.8 888.72C730.367 878.485 724.235 872.583 734.793 851.975C745.351 831.366 736.96 822.099 747.548 803.703" fill="#F5B31A"/>
<path d="M750.731 906.134C748.595 906.134 748.026 903.737 748.026 902.461L744.614 811.788C743.008 816.761 742.103 821.934 741.925 827.156C741.371 834.41 740.803 841.91 735.485 852.284C728.616 865.715 728.923 872.754 729.184 878.978C729.49 882.289 729.283 885.628 728.57 888.875C726.618 896.56 722.299 901.001 719.118 901.785C718.663 901.945 718.173 901.973 717.703 901.867C717.232 901.761 716.802 901.525 716.459 901.185C715.338 899.925 716.459 898.665 717.597 897.343C719.869 895.109 721.274 892.141 721.562 888.968C721.627 886.506 721.477 884.043 721.116 881.606C720.225 873.676 719.011 862.811 725.542 850.316C729.876 842.064 730.153 834.072 730.475 825.635C730.798 817.198 731.105 808.33 735.562 798.587L737.007 799.248C732.673 808.699 732.396 817.336 732.043 825.681C731.736 834.318 731.428 842.479 726.941 851.054C720.624 863.118 721.808 873.707 722.668 881.437C723.046 883.98 723.201 886.551 723.129 889.121C722.814 892.639 721.275 895.935 718.78 898.435C717.95 899.387 717.443 899.971 717.643 900.187C717.843 900.402 718.227 900.417 718.749 900.294C721.024 899.741 725.127 896.145 727.033 888.537C727.709 885.435 727.906 882.248 727.617 879.086C727.34 872.677 727.033 865.408 734.087 851.623C739.266 841.526 739.819 834.18 740.357 827.034C740.818 820.886 741.264 815.092 744.476 807.931L742.263 749.531H743.8L745.89 804.995C746.182 804.442 746.489 803.874 746.812 803.32L748.18 804.104C747.35 805.549 746.627 806.947 746.013 808.3L749.563 902.43C749.563 902.43 749.563 904.567 750.685 904.567C751.806 904.567 751.806 902.492 751.806 902.476L757.6 749.547H759.137L753.389 902.476C753.435 903.737 752.867 906.134 750.731 906.134Z" fill="#84361C"/>
<path d="M743.63 746.61L690.44 890.089C690.44 890.089 689.334 892.763 691.116 893.485C692.899 894.207 693.975 891.564 693.975 891.564L757.815 752.481M718.457 789.672C702.95 804.072 703.933 821.5 689.364 833.656C674.795 845.813 674.595 860.689 671.107 867.59C667.618 874.49 660.948 874.06 661.748 876.319C662.547 878.578 669.985 877.856 676.271 869.342C682.556 860.827 679.144 853.082 696.787 838.082C714.43 823.083 710.219 811.296 727.047 798.371" fill="#F5B31A"/>
<path d="M691.731 894.39C691.414 894.388 691.101 894.325 690.809 894.206C690.521 894.095 690.259 893.925 690.039 893.708C689.82 893.492 689.648 893.232 689.533 892.945C689.218 891.901 689.284 890.78 689.717 889.78L721.222 804.87C717.845 808.836 715.037 813.253 712.877 817.994C709.589 824.495 706.192 831.196 697.309 838.757C685.814 848.531 683.478 855.155 681.28 860.995C680.295 864.166 678.828 867.167 676.931 869.893C672.151 876.317 666.496 878.699 663.269 878.207C662.788 878.189 662.322 878.035 661.925 877.763C661.528 877.491 661.216 877.112 661.025 876.67C660.456 875.134 661.947 874.35 663.53 873.597C666.493 872.4 668.933 870.188 670.415 867.357C671.414 865.116 672.216 862.791 672.812 860.411C675.025 852.727 678.053 842.23 688.888 833.178C696.034 827.215 699.369 819.946 702.888 812.262C706.407 804.578 710.096 796.509 717.934 789.209L719.009 790.362C711.325 797.447 707.791 805.3 704.317 812.892C700.721 820.761 697.325 828.168 689.886 834.408C679.436 843.137 676.485 853.387 674.334 860.856C673.706 863.336 672.868 865.758 671.829 868.095C670.188 871.228 667.494 873.683 664.222 875.026C663.13 875.564 662.408 875.933 662.5 876.194C662.592 876.455 662.961 876.655 663.499 876.732C665.82 877.07 670.984 875.333 675.656 869.048C677.47 866.447 678.87 863.58 679.805 860.549C682.003 854.525 684.415 847.686 696.295 837.65C704.932 830.304 708.267 823.727 711.479 817.38C714.245 811.908 716.873 806.699 722.575 801.32L742.892 746.501L744.429 747.054L725.065 798.953C725.556 798.553 726.063 798.138 726.601 797.739L727.554 798.984C726.217 800.013 725.018 801.043 723.927 802.057L691.193 890.379C690.922 891.003 690.852 891.696 690.993 892.361C691.031 892.455 691.089 892.54 691.164 892.609C691.238 892.678 691.327 892.73 691.423 892.761C692.422 893.191 693.252 891.301 693.252 891.224L757.107 752.095L758.537 752.756L694.697 891.839C694.298 892.835 693.564 893.661 692.622 894.175C692.343 894.308 692.04 894.381 691.731 894.39Z" fill="#84361C"/>
<path d="M745.305 744.12L641.247 856.309C641.247 856.309 639.203 858.337 640.555 859.69C641.908 861.042 643.952 859.029 643.952 859.029L756.14 754.955M705.563 774.257C685.723 781.619 679.944 798.094 661.84 803.764C643.736 809.435 637.85 823.082 631.995 828.123C626.14 833.164 620.146 830.213 620.008 832.611C619.87 835.008 627.031 837.221 636.098 831.735C645.166 826.248 644.997 817.796 667.019 810.68C689.042 803.565 689.672 791.086 710.174 785.584" fill="#F5B31A"/>
<path d="M641.615 860.965C641.009 860.949 640.432 860.701 640.003 860.272C639.574 859.843 639.326 859.266 639.31 858.66C639.422 857.578 639.912 856.572 640.693 855.817L702.351 789.333C697.7 791.7 693.405 794.711 689.595 798.278C684.063 803.026 678.361 807.914 667.281 811.494C652.927 816.105 648.162 821.33 643.951 825.91C641.825 828.467 639.316 830.681 636.513 832.472C629.644 836.575 623.512 836.621 620.699 834.916C620.264 834.712 619.895 834.388 619.637 833.983C619.378 833.577 619.24 833.107 619.239 832.626C619.331 830.92 620.991 830.812 622.759 830.705C625.941 830.749 629.035 829.66 631.488 827.631C633.269 825.937 634.899 824.091 636.36 822.114C641.339 815.874 648.162 807.314 661.625 803.103C670.523 800.322 676.379 794.881 682.572 789.133C688.765 783.386 695.251 777.346 705.302 773.611L705.855 775.148C696.096 778.76 689.764 784.646 683.648 790.348C677.531 796.049 671.353 801.782 662.132 804.671C649.115 808.728 642.476 817.073 637.543 823.113C636.025 825.165 634.328 827.078 632.471 828.83C629.766 831.096 626.349 832.336 622.82 832.334C621.591 832.411 620.776 832.472 620.761 832.764C620.745 833.056 621.007 833.333 621.468 833.625C623.496 834.839 628.921 835.161 635.668 831.166C638.332 829.444 640.72 827.33 642.753 824.896C647.087 820.162 651.974 814.814 666.743 810.05C677.5 806.561 683.11 801.766 688.52 797.125C693.13 793.129 697.602 789.318 704.948 786.536L744.675 743.689L745.843 744.75L708.083 785.46L709.928 784.923L710.342 786.459C708.806 786.89 707.269 787.382 705.84 787.889L641.769 857.046C641.769 857.046 640.232 858.583 641.062 859.336C641.892 860.089 643.337 858.675 643.352 858.66L755.541 754.586L756.616 755.738L644.428 859.797C643.655 860.502 642.66 860.915 641.615 860.965V860.965Z" fill="#84361C"/>
<path d="M760.395 804.303C761.41 824.62 772.936 833.61 770.677 852.129C775.641 837.499 763.669 826.141 764.345 804.487M747.179 751.19L790.902 846.719L754.279 748.255" fill="#84361C"/>
<path d="M738.712 803.842C731.873 822.991 739.081 835.716 729.891 851.96C740.095 840.327 733.364 825.266 742.185 805.548M746.796 749.73L750.73 854.711L754.572 749.73" fill="#84361C"/>
<path d="M718.841 795.112C705.194 810.189 706.977 824.696 692.3 836.192C706.131 829.337 705.701 812.863 721.5 798.048M747.057 748.224L710.419 846.673L754.126 751.159" fill="#84361C"/>
<path d="M703.841 779.437C685.399 788.151 681.557 802.228 663.592 807.238C678.96 806.209 684.923 790.794 705.086 783.172M747.764 746.902L676.24 823.851L753.189 752.327" fill="#84361C"/>
<path d="M747.794 742.445L608.711 806.285C608.711 806.285 606.068 807.392 606.79 809.159C607.512 810.926 610.186 809.835 610.186 809.835L753.665 756.63M699.553 755.093C678.406 754.31 666.772 767.388 647.885 765.621C628.997 763.853 618.316 774.304 611.001 776.717C603.686 779.129 599.26 774.104 598.215 776.256C597.169 778.407 602.963 783.156 613.414 781.604C623.864 780.051 626.953 772.137 650.036 773.92C673.119 775.702 678.468 764.483 699.522 767.25" fill="#F5B31A"/>
<path d="M608.512 811.018C608.106 811.03 607.703 810.956 607.328 810.803C607.042 810.688 606.782 810.516 606.565 810.296C606.348 810.077 606.179 809.815 606.068 809.527C605.253 807.56 607.236 806.115 608.404 805.623L690.793 767.756C685.605 768.164 680.499 769.297 675.625 771.122C668.709 773.396 661.548 775.732 649.929 774.795C634.884 773.596 628.506 776.562 622.866 779.19C619.929 780.735 616.773 781.819 613.506 782.402C605.576 783.585 599.89 781.265 597.954 778.621C597.631 778.262 597.415 777.82 597.331 777.345C597.246 776.869 597.297 776.38 597.477 775.932C598.215 774.395 599.782 774.948 601.458 775.517C604.38 776.757 607.647 776.92 610.678 775.978C612.974 775.092 615.19 774.012 617.302 772.751C624.279 768.878 633.854 763.53 647.901 764.851C657.122 765.697 664.683 762.915 672.597 759.964C680.512 757.014 688.826 753.924 699.538 754.324V755.861C689.149 755.477 681.096 758.489 673.212 761.409C665.113 764.483 657.46 767.264 647.824 766.388C634.269 765.174 624.925 770.322 618.117 774.072C615.925 775.39 613.621 776.511 611.232 777.423C607.862 778.481 604.227 778.318 600.966 776.962C599.798 776.562 599.029 776.316 598.906 776.577C598.783 776.839 598.906 777.208 599.229 777.638C600.628 779.543 605.515 781.956 613.291 780.804C616.407 780.241 619.418 779.205 622.22 777.73C628.029 775.025 634.622 771.952 650.083 773.12C661.379 774.026 668.371 771.736 675.148 769.523C680.958 767.618 686.521 765.789 694.343 766.019L747.487 741.63L748.132 743.059L697.663 766.234C698.293 766.234 698.939 766.357 699.599 766.45L699.4 767.986C697.724 767.756 696.142 767.633 694.651 767.572L609.049 806.868C609.049 806.868 607.128 807.729 607.513 808.728C607.55 808.824 607.605 808.911 607.677 808.985C607.748 809.059 607.833 809.118 607.928 809.158C608.582 809.297 609.263 809.233 609.879 808.974L753.388 755.753L753.942 757.29L610.463 810.495C609.849 810.785 609.188 810.962 608.512 811.018V811.018Z" fill="#84361C"/>
<path d="M750.73 741.86L597.815 747.608C597.815 747.608 594.941 747.608 594.926 749.529C594.91 751.45 597.815 751.45 597.815 751.45L750.73 757.228M701.32 735.098C682.079 726.292 666.342 733.853 649.545 725.062C632.747 716.272 618.916 721.743 611.216 721.159C603.517 720.575 601.365 714.274 599.567 715.857C597.769 717.44 601.319 724.048 611.57 726.615C621.82 729.181 627.691 723.065 648.3 733.607C668.909 744.15 678.191 735.774 696.587 746.363" fill="#F5B31A"/>
<path d="M750.731 757.998L597.816 752.25C596.571 752.25 594.174 751.681 594.174 749.545C594.174 747.409 596.587 746.84 597.847 746.84L688.52 743.429C683.547 741.823 678.374 740.918 673.151 740.739C665.898 740.186 658.382 739.633 648.009 734.315C634.577 727.43 627.538 727.738 621.33 728.014C618.018 728.308 614.68 728.095 611.432 727.384C603.671 725.432 599.291 721.114 598.508 717.933C598.348 717.478 598.319 716.987 598.425 716.517C598.531 716.047 598.768 715.616 599.107 715.274C600.367 714.152 601.627 715.274 602.949 716.411C605.183 718.683 608.151 720.089 611.325 720.376C613.787 720.441 616.25 720.292 618.686 719.93C626.616 719.039 637.482 717.825 649.976 724.357C658.229 728.69 666.22 728.967 674.673 729.29C683.125 729.612 691.962 729.92 701.706 734.377L701.045 735.821C691.593 731.487 682.956 731.211 674.611 730.857C665.974 730.55 657.814 730.243 649.238 725.755C637.174 719.439 626.586 720.622 618.855 721.483C616.313 721.869 613.741 722.023 611.171 721.944C607.686 721.609 604.426 720.071 601.95 717.594C600.997 716.765 600.413 716.257 600.183 716.457C599.952 716.657 599.952 717.041 600.075 717.564C600.628 719.838 604.225 723.942 611.847 725.847C614.944 726.523 618.127 726.72 621.284 726.431C627.692 726.155 634.946 725.847 648.747 732.901C658.859 738.08 666.205 738.634 673.336 739.172C679.483 739.633 685.277 740.078 692.439 743.29L750.838 741.077V742.614L695.389 744.704L697.065 745.626L696.281 746.994C694.836 746.164 693.438 745.442 692.085 744.827L597.939 748.377C597.939 748.377 595.818 748.377 595.803 749.514C595.787 750.652 597.893 750.636 597.908 750.636L750.731 756.415V757.998Z" fill="#84361C"/>
<path d="M753.664 742.444L610.186 689.255C610.186 689.255 607.528 688.148 606.79 689.931C606.052 691.713 608.726 692.789 608.726 692.789L747.794 756.629M710.603 717.271C696.203 701.764 678.775 702.748 666.619 688.179C654.462 673.61 639.586 673.41 632.685 669.921C625.785 666.433 626.231 659.763 623.956 660.562C621.682 661.361 622.419 668.799 630.933 675.085C639.447 681.371 647.193 677.959 662.192 695.602C677.192 713.244 688.979 709.034 701.919 725.862" fill="#F5B31A"/>
<path d="M747.472 757.337L608.389 693.497C607.39 693.094 606.563 692.355 606.053 691.407C605.931 691.125 605.868 690.822 605.868 690.515C605.868 690.209 605.931 689.905 606.053 689.624C606.169 689.335 606.341 689.071 606.56 688.85C606.779 688.628 607.04 688.452 607.328 688.333C608.346 688.045 609.431 688.116 610.402 688.533L695.404 720.038C691.434 716.657 687.012 713.848 682.264 711.693C675.779 708.404 669.063 705.008 661.502 696.125C651.727 684.629 645.104 682.293 639.264 680.096C636.092 679.11 633.091 677.644 630.365 675.746C623.941 670.967 621.559 665.311 622.051 662.084C622.07 661.603 622.224 661.137 622.496 660.74C622.768 660.343 623.146 660.031 623.588 659.84C625.125 659.272 625.924 660.762 626.662 662.361C627.829 665.308 630.009 667.744 632.809 669.23C635.155 670.247 637.588 671.05 640.078 671.628C647.762 673.841 658.259 676.868 667.311 687.703C673.274 694.849 680.543 698.184 688.227 701.703C695.911 705.223 703.98 708.911 711.279 716.749L710.127 717.825C703.042 710.141 695.189 706.606 687.597 703.133C679.728 699.537 672.321 696.14 666.081 688.702C657.352 678.251 647.102 675.301 639.633 673.149C637.153 672.521 634.731 671.683 632.394 670.644C629.269 669.004 626.821 666.316 625.478 663.052C624.91 661.915 624.556 661.239 624.28 661.316C624.003 661.392 623.834 661.777 623.757 662.315C623.404 664.635 625.156 669.799 631.441 674.471C634.046 676.28 636.912 677.679 639.94 678.62C645.964 680.818 652.788 683.231 662.839 695.11C670.2 703.747 676.762 707.082 683.125 710.294C688.581 713.061 693.806 715.689 699.185 721.39L753.988 741.707L753.435 743.244L701.398 723.957C701.797 724.433 702.197 724.94 702.596 725.494L701.352 726.446C700.322 725.125 699.308 723.926 698.278 722.835L609.941 690.085C609.941 690.085 607.974 689.317 607.559 690.316C607.517 690.407 607.496 690.507 607.496 690.608C607.496 690.708 607.517 690.808 607.559 690.9C607.92 691.472 608.46 691.91 609.096 692.144L748.209 756L747.472 757.337Z" fill="#84361C"/>
<path d="M756.172 744.12L643.983 640.061C643.983 640.061 641.939 638.017 640.587 639.37C639.235 640.722 641.263 642.766 641.263 642.766L745.337 754.955M726.019 704.378C718.658 684.537 702.183 678.759 696.527 660.655C690.872 642.551 677.194 636.665 672.169 630.81C667.143 624.954 670.063 618.961 667.666 618.822C665.268 618.684 663.055 625.846 668.542 634.913C674.028 643.98 682.481 643.811 689.596 665.834C696.712 687.857 709.191 688.487 714.693 708.988" fill="#F5B31A"/>
<path d="M744.736 755.508L640.677 643.319C640.282 642.916 639.95 642.455 639.693 641.951C639.398 641.476 639.27 640.916 639.328 640.359C639.387 639.803 639.629 639.282 640.016 638.878C641.553 637.341 643.612 638.663 644.519 639.554L710.987 701.196C708.615 696.557 705.604 692.274 702.042 688.471C697.309 682.939 692.406 677.237 688.826 666.156C684.215 651.802 678.99 647.038 674.41 642.827C671.853 640.701 669.639 638.192 667.848 635.389C663.745 628.52 663.699 622.388 665.404 619.575C665.611 619.142 665.936 618.776 666.34 618.518C666.745 618.259 667.214 618.12 667.694 618.115C669.4 618.207 669.508 619.867 669.615 621.635C669.58 624.815 670.669 627.907 672.689 630.364C674.383 632.145 676.229 633.775 678.206 635.235C684.446 640.215 693.006 647.038 697.217 660.501C699.998 669.399 705.439 675.255 711.187 681.448C716.934 687.641 722.974 694.127 726.693 704.178L725.156 704.715C721.545 694.972 715.659 688.64 709.972 682.524C704.286 676.407 698.538 670.229 695.649 661.008C691.577 648.007 683.247 641.352 677.207 636.496C675.155 634.978 673.242 633.281 671.49 631.424C669.223 628.719 667.983 625.302 667.986 621.773C667.909 620.497 667.833 619.729 667.556 619.714C667.279 619.698 666.972 619.959 666.68 620.42C665.466 622.434 665.143 627.874 669.139 634.621C670.861 637.284 672.975 639.673 675.409 641.706C680.143 646.039 685.491 650.927 690.255 665.695C693.744 676.453 698.538 682.063 703.18 687.472C707.175 692.083 710.971 696.555 713.768 703.87L756.631 743.628L755.57 744.796L714.844 707.021C715.029 707.62 715.213 708.25 715.382 708.88L713.845 709.295C713.4 707.666 712.923 706.222 712.401 704.777L643.351 640.722C643.351 640.722 641.814 639.185 641.046 640.015C640.907 640.153 640.6 640.461 641.046 641.321C641.237 641.679 641.475 642.01 641.753 642.305L745.827 754.493L744.736 755.508Z" fill="#84361C"/>
<path d="M695.973 759.212C675.656 760.226 666.665 771.752 648.146 769.493C662.792 774.457 674.134 762.485 695.788 763.161M749.085 745.995L653.572 789.718L752.021 753.095" fill="#84361C"/>
<path d="M696.433 737.526C677.285 730.688 664.56 737.895 648.331 728.705C659.949 738.91 675.01 732.178 694.728 741.077M750.545 745.687L645.564 749.544L750.545 753.387" fill="#84361C"/>
<path d="M705.163 717.655C690.087 704.008 675.595 705.791 664.099 691.114C670.938 704.946 687.428 704.515 702.228 720.314M752.052 745.871L653.603 709.233L749.193 752.941" fill="#84361C"/>
<path d="M720.838 702.657C712.124 684.215 698.047 680.373 693.052 662.407C694.067 677.776 709.481 683.738 717.119 703.902M753.373 746.579L676.424 675.055L747.948 752.004" fill="#84361C"/>
<path d="M757.814 746.61L693.974 607.527C693.974 607.527 692.883 604.884 691.116 605.606C689.348 606.329 690.44 609.003 690.44 609.003L743.645 752.481M745.181 698.369C745.95 677.223 732.887 665.589 734.639 646.701C736.391 627.814 725.971 617.133 723.558 609.817C721.145 602.502 726.155 598.076 724.004 597.031C721.852 595.986 717.119 601.78 718.656 612.23C720.193 622.681 728.123 625.77 726.34 648.853C724.557 671.936 735.776 677.284 733.025 698.339" fill="#F5B31A"/>
<path d="M742.907 752.757L689.702 609.279C689.295 608.304 689.236 607.219 689.533 606.205C689.65 605.918 689.825 605.657 690.047 605.441C690.27 605.224 690.534 605.055 690.824 604.945C692.791 604.13 694.221 606.113 694.712 607.281L732.534 689.609C732.115 684.421 730.977 679.316 729.153 674.44C726.878 667.509 724.542 660.363 725.48 648.729C726.694 633.699 723.712 627.321 721.084 621.681C719.537 618.74 718.454 615.578 717.872 612.306C716.704 604.376 719.01 598.69 721.653 596.754C722.015 596.431 722.46 596.216 722.938 596.131C723.415 596.047 723.907 596.098 724.358 596.277C725.895 597.015 725.341 598.583 724.773 600.258C723.533 603.18 723.37 606.447 724.312 609.479C725.191 611.777 726.271 613.993 727.539 616.102C731.396 623.08 736.76 632.654 735.423 646.701C734.593 655.998 737.375 663.483 740.325 671.397C743.276 679.312 746.35 687.626 745.966 698.338H744.429C744.813 687.949 741.801 679.896 738.896 672.012C735.822 663.913 733.041 656.275 733.901 646.624C735.116 633.054 729.967 623.725 726.217 616.917C724.906 614.722 723.785 612.418 722.867 610.032C721.804 606.662 721.973 603.023 723.343 599.766C723.728 598.598 723.974 597.83 723.728 597.707C723.482 597.584 723.082 597.707 722.636 598.045C720.746 599.428 718.349 604.315 719.563 612.091C720.127 615.212 721.164 618.228 722.636 621.036C725.341 626.845 728.415 633.422 727.247 648.883C726.325 660.194 728.63 667.187 730.843 673.964C732.749 679.773 734.578 685.337 734.347 693.159L758.737 746.287L757.307 746.933L734.147 696.479C734.147 697.109 734.009 697.754 733.917 698.4L732.38 698.2C732.595 696.525 732.718 694.957 732.78 693.482L693.268 607.85C693.268 607.85 692.407 605.913 691.423 606.313C691.239 606.39 690.84 606.559 690.901 607.481C690.932 607.892 691.025 608.296 691.178 608.679L744.383 752.189L742.907 752.757Z" fill="#84361C"/>
<path d="M758.413 749.545L752.665 596.63C752.665 596.63 752.665 593.741 750.744 593.741C748.823 593.741 748.839 596.615 748.839 596.615L743.045 749.545M765.16 700.136C773.981 680.895 766.405 665.158 775.211 648.36C784.017 631.563 778.5 617.731 779.099 610.032C779.698 602.332 785.984 600.181 784.401 598.382C782.818 596.584 776.225 600.134 773.643 610.385C771.061 620.636 777.209 626.506 766.651 647.115C756.093 667.724 764.499 677.007 753.895 695.402" fill="#F5B31A"/>
<path d="M743.844 749.545H742.308L748.055 596.615C748.055 595.386 748.624 592.988 750.76 592.988C752.896 592.988 753.465 595.386 753.465 596.661L756.877 687.334C758.481 682.361 759.386 677.189 759.566 671.966C760.119 664.712 760.688 657.212 766.005 646.839C772.875 633.407 772.568 626.368 772.306 620.159C772.005 616.848 772.218 613.509 772.937 610.262C774.873 602.501 779.192 598.137 782.357 597.353C782.813 597.188 783.306 597.155 783.779 597.259C784.252 597.362 784.686 597.597 785.031 597.937C786.153 599.197 785.031 600.457 783.894 601.779C781.622 604.013 780.217 606.981 779.929 610.155C779.864 612.617 780.013 615.08 780.375 617.516C781.266 625.446 782.496 636.311 775.949 648.806C771.63 657.059 771.338 665.05 771.031 673.503C770.724 681.955 770.385 690.792 765.929 700.536L764.499 699.875C768.833 690.423 769.11 681.786 769.448 673.441C769.771 664.804 770.063 656.644 774.55 648.068C780.867 636.019 779.683 625.431 778.807 617.685C778.433 615.142 778.284 612.57 778.362 610.001C778.669 606.481 780.209 603.183 782.711 600.688C783.525 599.766 784.048 599.151 783.863 598.936C783.679 598.721 783.264 598.705 782.742 598.828C780.452 599.397 776.364 602.993 774.458 610.6C773.782 613.697 773.585 616.88 773.874 620.036C774.151 626.445 774.473 633.699 767.404 647.5C762.24 657.597 761.672 664.943 761.134 672.089C760.673 678.236 760.227 684.045 757.015 691.192L759.213 749.591H757.676L755.586 694.142C755.294 694.696 754.986 695.249 754.648 695.817L753.281 695.034C754.126 693.574 754.817 692.191 755.463 690.838L751.928 596.692C751.928 596.692 751.928 594.556 750.791 594.556C749.654 594.556 749.669 596.631 749.669 596.646L743.844 749.545Z" fill="#84361C"/>
<path d="M757.815 752.48L811.02 609.002C811.02 609.002 812.127 606.343 810.359 605.605C808.592 604.868 807.486 607.542 807.486 607.542L743.661 746.609M783.004 709.418C798.511 695.018 797.542 677.59 812.096 665.434C826.65 653.278 826.88 638.401 830.369 631.501C833.858 624.6 840.497 625.046 839.713 622.772C838.929 620.497 831.491 621.235 825.19 629.749C818.889 638.263 822.301 646.009 804.673 661.008C787.046 676.007 791.226 687.795 774.413 700.735" fill="#F5B31A"/>
<path d="M758.553 752.757L757.016 752.204L776.319 700.167C775.842 700.567 775.335 700.966 774.782 701.366L773.814 700.121C775.151 699.091 776.334 698.077 777.425 697.047L810.175 608.71C810.175 608.71 810.943 606.743 809.944 606.313C808.945 605.883 808.116 607.85 808.1 607.85L744.26 746.964L742.831 746.303L806.656 607.22C807.071 606.224 807.814 605.4 808.761 604.884C809.337 604.646 809.983 604.646 810.559 604.884C812.526 605.714 812.096 608.126 811.65 609.31L780.115 694.312C783.505 690.346 786.319 685.923 788.475 681.172C791.764 674.687 795.16 667.971 804.028 660.409C815.523 650.635 817.859 644.011 820.072 638.171C821.053 634.996 822.526 631.993 824.437 629.273C829.201 622.849 834.856 620.452 838.099 620.959C838.579 620.979 839.045 621.134 839.441 621.406C839.838 621.677 840.15 622.055 840.343 622.496C840.896 624.033 839.39 624.832 837.807 625.569C834.849 626.768 832.414 628.98 830.937 631.809C829.968 634.099 829.201 636.469 828.648 638.894C826.435 646.578 823.407 657.074 812.588 666.126C805.426 672.089 802.107 679.358 798.587 687.043C795.068 694.727 791.38 702.78 783.526 710.095L782.466 708.942C790.15 701.858 793.669 694.004 797.143 686.413C800.739 678.559 804.135 671.136 811.573 664.897C822.024 656.168 824.99 645.917 827.141 638.448C827.76 635.966 828.598 633.543 829.646 631.21C831.278 628.08 833.961 625.626 837.223 624.279C838.36 623.725 839.052 623.372 838.96 623.095C838.867 622.819 838.499 622.649 837.961 622.573C835.64 622.219 830.492 623.971 825.804 630.257C824.002 632.865 822.603 635.73 821.655 638.755C819.457 644.78 817.045 651.603 805.165 661.654C796.528 669.016 793.193 675.578 789.981 681.94C787.215 687.411 784.571 692.621 778.87 698.016L758.553 752.757Z" fill="#84361C"/>
<path d="M756.154 754.986L860.213 642.798C860.213 642.798 862.257 640.754 860.904 639.401C859.552 638.049 857.508 640.078 857.508 640.078L745.319 744.152M795.881 724.834C815.721 717.472 821.5 700.998 839.604 695.342C857.708 689.686 863.594 676.009 869.449 670.968C875.304 665.927 881.298 668.878 881.436 666.48C881.575 664.083 874.398 661.947 865.346 667.356C856.294 672.766 856.463 681.295 834.425 688.411C812.387 695.526 811.772 708.052 791.271 713.492" fill="#F5B31A"/>
<path d="M756.738 755.508L755.57 754.447L793.345 713.721L791.486 714.259L791.071 712.723C792.7 712.277 794.144 711.8 795.589 711.278L859.644 642.228C859.644 642.228 861.181 640.691 860.351 639.923C860.213 639.785 859.905 639.477 859.045 639.923C858.687 640.114 858.357 640.352 858.061 640.63L745.873 744.704L744.797 743.551L856.985 639.493C857.389 639.097 857.85 638.766 858.353 638.509C858.829 638.196 859.398 638.057 859.965 638.114C860.531 638.172 861.06 638.424 861.463 638.826C861.866 639.229 862.117 639.758 862.175 640.325C862.233 640.891 862.093 641.461 861.78 641.936C861.516 642.444 861.185 642.914 860.797 643.335L799.139 709.803C803.778 707.431 808.061 704.42 811.864 700.858C817.397 696.125 823.098 691.222 834.179 687.642C848.548 683.031 853.312 677.806 857.508 673.226C859.634 670.668 862.143 668.455 864.946 666.664C871.816 662.56 877.948 662.514 880.76 664.22C881.195 664.424 881.564 664.748 881.822 665.153C882.081 665.559 882.219 666.029 882.22 666.51C882.128 668.216 880.468 668.324 878.701 668.431C875.52 668.396 872.429 669.484 869.972 671.505C868.191 673.199 866.561 675.045 865.1 677.022C860.12 683.262 853.297 691.822 839.834 696.033C830.936 698.814 825.081 704.239 818.887 710.002C812.694 715.765 806.209 721.79 796.158 725.509L795.604 723.972C805.363 720.361 811.695 714.475 817.812 708.788C823.928 703.102 830.106 697.354 839.327 694.465C852.329 690.392 858.983 682.063 863.916 676.023C865.434 673.971 867.131 672.058 868.988 670.306C871.693 668.039 875.11 666.798 878.639 666.802C879.915 666.725 880.683 666.648 880.699 666.372C880.714 666.095 880.453 665.788 879.976 665.496C877.978 664.282 872.538 663.959 865.791 667.955C863.129 669.673 860.745 671.787 858.722 674.225C854.388 678.958 849.501 684.307 834.717 689.071C823.959 692.559 818.349 697.354 812.94 701.995C808.329 705.991 803.857 709.787 796.542 712.584L756.738 755.508Z" fill="#84361C"/>
<path d="M741.064 694.788C740.049 674.471 728.523 665.481 730.798 646.962C725.818 661.608 737.806 672.95 737.114 694.604M754.28 747.901L710.558 652.387L747.18 750.852" fill="#84361C"/>
<path d="M762.764 695.25C769.588 676.101 762.396 663.376 771.555 647.147C761.381 658.766 768.097 673.826 759.26 693.544M754.65 749.362L750.823 644.381L746.966 749.362" fill="#84361C"/>
<path d="M782.618 703.994C796.265 688.902 794.482 674.395 809.159 662.899C795.327 669.753 795.758 686.228 779.959 701.043M754.417 750.867L791.039 652.418L747.332 748.009" fill="#84361C"/>
<path d="M797.618 719.654C816.06 710.94 819.902 696.862 837.868 691.868C822.499 692.882 816.536 708.296 796.373 715.935M753.695 752.173L825.219 675.239L748.271 746.763" fill="#84361C"/>
<path d="M753.667 756.63L892.749 692.79C892.749 692.79 895.408 691.699 894.671 689.932C893.933 688.164 891.29 689.271 891.29 689.271L747.796 742.46M801.908 743.997C823.07 744.766 834.688 731.703 853.591 733.455C872.494 735.207 883.16 724.787 890.475 722.374C897.79 719.961 902.216 724.971 903.246 722.82C904.276 720.668 898.497 715.935 888.047 717.472C877.596 719.008 874.507 726.938 851.44 725.079C828.372 723.219 822.993 734.515 801.954 731.764" fill="#F5B31A"/>
<path d="M754.003 757.352L753.342 755.922L803.797 732.762L801.876 732.547L802.091 731.011C803.75 731.226 805.318 731.349 806.809 731.41L892.41 692.113C892.41 692.113 894.362 691.268 893.947 690.269C893.912 690.172 893.858 690.083 893.786 690.009C893.714 689.935 893.628 689.877 893.532 689.839C892.878 689.693 892.195 689.758 891.58 690.023L748.071 743.228L747.533 741.691L891.012 688.486C891.987 688.08 893.072 688.02 894.085 688.317C894.371 688.437 894.63 688.613 894.847 688.834C895.063 689.056 895.233 689.319 895.345 689.608C896.145 691.575 894.147 693.005 892.979 693.497L810.666 731.349C815.859 730.928 820.969 729.79 825.85 727.968C832.766 725.693 839.912 723.357 851.546 724.295C866.576 725.509 872.954 722.527 878.594 719.899C881.542 718.36 884.709 717.282 887.984 716.703C895.883 715.519 901.57 717.825 903.521 720.452C903.842 720.816 904.057 721.26 904.144 721.736C904.231 722.213 904.185 722.704 904.013 723.157C903.275 724.694 901.693 724.156 900.033 723.588C897.11 722.349 893.843 722.186 890.812 723.127C888.512 724.003 886.295 725.083 884.188 726.354C877.196 730.211 867.606 735.498 853.574 734.238C844.353 733.408 836.808 736.19 828.878 739.14C820.948 742.091 812.649 745.195 801.952 744.78V743.244C812.357 743.643 820.394 740.616 828.278 737.711C836.377 734.637 844.031 731.856 853.667 732.716C867.221 733.946 876.565 728.782 883.374 725.032C885.572 723.717 887.881 722.596 890.274 721.682C893.644 720.62 897.282 720.789 900.54 722.158C901.692 722.558 902.461 722.788 902.584 722.543C902.707 722.297 902.584 721.897 902.246 721.451C900.863 719.561 895.96 717.164 888.215 718.378C885.089 718.94 882.067 719.976 879.255 721.451C873.446 724.156 866.868 727.245 851.423 725.985C840.112 725.078 833.104 727.368 826.342 729.581C820.517 731.487 814.969 733.331 807.131 733.085L754.003 757.352Z" fill="#84361C"/>
<path d="M750.729 757.23L903.629 751.482C903.629 751.482 906.518 751.482 906.518 749.561C906.518 747.64 903.644 747.655 903.644 747.655L750.729 741.861M800.123 763.976C819.38 772.798 835.101 765.236 851.899 774.027C868.696 782.818 882.528 777.316 890.227 777.915C897.927 778.515 900.078 784.8 901.877 783.217C903.675 781.634 900.125 775.041 889.889 772.46C879.654 769.878 873.753 776.025 853.144 765.482C832.535 754.94 823.268 763.315 804.872 752.711" fill="#F5B31A"/>
<path d="M901.339 784.292C900.279 784.069 899.322 783.502 898.618 782.678C896.385 780.406 893.416 779 890.243 778.713C887.781 778.648 885.318 778.797 882.881 779.159C874.951 780.05 864.086 781.279 851.592 774.733C843.339 770.414 835.347 770.122 826.91 769.815C818.473 769.507 809.605 769.169 799.862 764.712L800.523 763.283C809.974 767.617 818.611 767.894 826.956 768.232C835.593 768.554 843.754 768.846 852.329 773.349C864.378 779.65 874.982 778.467 882.712 777.591C885.256 777.217 887.827 777.068 890.396 777.145C893.916 777.453 897.214 778.993 899.71 781.495C900.632 782.309 901.247 782.832 901.462 782.647C901.677 782.463 901.692 782.048 901.569 781.525C901.001 779.251 897.404 775.147 889.812 773.242C886.709 772.573 883.523 772.376 880.361 772.658C873.952 772.934 866.699 773.257 852.898 766.188C842.801 761.024 835.455 760.455 828.309 759.918C822.161 759.456 816.352 759.011 809.206 755.799L750.806 757.996V756.46L806.271 754.37C805.717 754.078 805.164 753.77 804.595 753.432L805.379 752.08C806.824 752.91 808.222 753.632 809.575 754.247L903.705 750.712C903.705 750.712 905.842 750.712 905.842 749.575C905.842 748.437 903.767 748.453 903.752 748.453L750.729 742.659V741.122L903.659 746.885C904.889 746.885 907.286 747.438 907.286 749.575C907.286 751.711 904.889 752.279 903.613 752.279L812.94 755.691C817.912 757.303 823.085 758.208 828.309 758.381C835.562 758.934 843.062 759.503 853.436 764.82C866.868 771.69 873.906 771.382 880.13 771.121C883.442 770.82 886.781 771.032 890.028 771.751C897.712 773.703 902.153 778.006 902.922 781.172C903.087 781.627 903.119 782.12 903.016 782.593C902.913 783.066 902.677 783.501 902.338 783.846C902.071 784.112 901.715 784.271 901.339 784.292V784.292Z" fill="#84361C"/>
<path d="M747.796 756.629L891.274 809.834C891.274 809.834 893.948 810.941 894.671 809.174C895.393 807.406 892.75 806.3 892.75 806.3L753.667 742.46M790.858 781.803C805.258 797.309 822.685 796.341 834.842 810.895C846.998 825.449 861.89 825.679 868.775 829.168C875.66 832.656 875.23 839.296 877.504 838.512C879.779 837.728 879.041 830.29 870.527 823.989C862.013 817.688 854.267 821.1 839.268 803.472C824.268 785.845 812.481 790.025 799.556 773.212" fill="#F5B31A"/>
<path d="M877.104 839.372C875.936 839.372 875.306 838.081 874.645 836.729C873.473 833.784 871.295 831.35 868.498 829.859C866.252 828.858 863.922 828.056 861.536 827.462C853.852 825.249 843.355 822.221 834.303 811.402C828.34 804.24 821.071 800.921 813.387 797.401C805.703 793.882 797.65 790.194 790.335 782.341L791.487 781.265C798.572 788.949 806.425 792.484 814.017 795.957C821.886 799.553 829.293 802.965 835.533 810.388C844.262 820.838 854.512 823.789 861.997 825.956C864.478 826.579 866.9 827.417 869.235 828.461C872.362 830.092 874.811 832.775 876.151 836.037C876.704 837.175 877.042 837.866 877.334 837.774C877.626 837.682 877.78 837.313 877.857 836.775C878.21 834.454 876.458 829.306 870.173 824.619C867.565 822.816 864.7 821.417 861.674 820.469C855.65 818.272 848.826 815.859 838.775 803.979C831.429 795.342 824.852 792.007 818.505 788.795C813.033 786.029 807.747 783.386 802.429 777.699L747.626 757.367L748.179 755.83L800.232 775.133C799.832 774.656 799.432 774.149 799.033 773.596L800.278 772.628C801.307 773.965 802.322 775.163 803.351 776.239L891.673 808.989C891.673 808.989 893.655 809.758 894.055 808.759C894.455 807.76 892.595 806.93 892.518 806.914L753.404 743.075L754.065 741.63L893.164 805.47C894.154 805.887 894.973 806.63 895.484 807.575C895.606 807.859 895.668 808.165 895.668 808.474C895.668 808.783 895.606 809.089 895.484 809.373C895.269 809.904 894.879 810.345 894.379 810.625C893.879 810.904 893.298 811.005 892.733 810.91C892.164 810.865 891.605 810.735 891.074 810.526L805.964 779.052C809.938 782.426 814.36 785.234 819.104 787.397C825.605 790.685 832.305 794.082 839.866 802.949C849.641 814.445 856.264 816.781 862.104 818.994C865.28 819.975 868.283 821.448 871.003 823.358C877.427 828.123 879.809 833.778 879.317 837.021C879.297 837.501 879.142 837.966 878.87 838.363C878.598 838.76 878.221 839.072 877.78 839.265C877.562 839.339 877.334 839.375 877.104 839.372V839.372Z" fill="#84361C"/>
<path d="M745.305 754.968L857.493 859.027C857.493 859.027 859.522 861.071 860.874 859.719C862.227 858.366 860.213 856.322 860.213 856.322L756.139 744.134M775.442 794.711C782.803 814.551 799.278 820.33 804.949 838.434C810.62 856.537 824.267 862.424 829.308 868.279C834.349 874.134 831.398 880.128 833.795 880.266C836.193 880.404 838.406 873.243 832.919 864.176C827.433 855.108 818.98 855.277 811.865 833.254C804.749 811.232 792.224 810.586 786.784 790.085" fill="#F5B31A"/>
<path d="M833.873 881.036H833.719C832.014 880.944 831.906 879.284 831.798 877.517C831.836 874.336 830.747 871.244 828.725 868.788C827.03 867.007 825.184 865.377 823.208 863.916C816.968 858.937 808.408 852.128 804.197 838.651C801.415 829.752 795.975 823.897 790.227 817.704C784.479 811.51 778.44 805.025 774.705 794.974L776.242 794.421C779.854 804.179 785.74 810.511 791.441 816.628C797.143 822.744 802.875 828.922 805.765 838.143C809.822 851.16 818.167 857.815 824.206 862.733C826.259 864.25 828.172 865.947 829.924 867.804C832.188 870.515 833.424 873.938 833.412 877.471C833.489 878.685 833.566 879.499 833.842 879.515C834.119 879.53 834.426 879.269 834.718 878.808C835.933 876.795 836.255 871.354 832.259 864.608C830.538 861.944 828.424 859.555 825.989 857.523C821.256 853.189 815.908 848.302 811.143 833.533C807.655 822.775 802.86 817.166 798.219 811.756C794.223 807.146 790.412 802.673 787.63 795.327L744.783 755.6L745.844 754.432L786.554 792.192C786.37 791.593 786.185 790.978 786.016 790.348L787.553 789.933C787.983 791.47 788.475 793.007 788.982 794.436L858.14 858.506C858.14 858.506 859.677 860.043 860.43 859.213C861.183 858.383 859.769 856.939 859.753 856.923L755.679 744.735L756.832 743.659L860.891 855.848C861.767 856.724 863.057 858.829 861.536 860.335C861.324 860.558 861.069 860.734 860.786 860.853C860.503 860.972 860.199 861.031 859.892 861.027V861.027C858.811 860.915 857.804 860.425 857.049 859.644L790.565 797.986C792.932 802.638 795.943 806.932 799.51 810.742C804.243 816.274 809.146 821.976 812.726 833.057C817.337 847.411 822.562 852.175 827.142 856.386C829.699 858.512 831.913 861.021 833.704 863.824C837.807 870.693 837.854 876.825 836.148 879.638C835.929 880.054 835.603 880.403 835.203 880.65C834.802 880.896 834.343 881.029 833.873 881.036V881.036Z" fill="#84361C"/>
<path d="M805.487 739.879C825.804 738.865 834.794 727.339 853.313 729.613C838.682 724.634 827.325 736.621 805.671 735.929M752.374 753.096L847.903 709.373L749.438 745.996" fill="#84361C"/>
<path d="M805.026 761.563C824.19 768.402 836.9 761.209 853.144 770.369C841.51 760.195 826.449 766.911 806.732 758.074M750.914 753.464L855.895 749.637L750.914 745.795" fill="#84361C"/>
<path d="M796.297 781.435C811.373 795.082 825.881 793.299 837.376 807.976C830.522 794.145 814.047 794.575 799.232 778.776M749.408 753.234L847.857 789.857L752.344 746.149" fill="#84361C"/>
<path d="M780.621 796.434C789.335 814.875 803.412 818.718 808.422 836.683C807.392 821.315 791.978 815.352 784.355 795.189M748.102 752.511L825.035 824.035L753.511 747.086" fill="#84361C"/>
<path d="M750.729 687.228C763.054 687.228 775.103 690.882 785.351 697.73C795.599 704.578 803.587 714.31 808.303 725.698C813.02 737.085 814.254 749.615 811.849 761.704C809.445 773.792 803.51 784.896 794.794 793.612C786.079 802.327 774.975 808.262 762.886 810.667C750.798 813.071 738.268 811.837 726.88 807.121C715.493 802.404 705.76 794.416 698.913 784.168C692.065 773.92 688.41 761.871 688.41 749.546C688.41 733.018 694.976 717.167 706.663 705.48C718.35 693.793 734.201 687.228 750.729 687.228" fill="#F5B31A"/>
<path d="M750.73 812.923C738.195 812.923 725.942 809.206 715.519 802.241C705.096 795.277 696.973 785.379 692.176 773.798C687.379 762.217 686.124 749.474 688.569 737.179C691.015 724.885 697.051 713.592 705.915 704.728C714.778 695.865 726.071 689.828 738.366 687.383C750.66 684.937 763.403 686.192 774.984 690.989C786.565 695.786 796.464 703.91 803.428 714.332C810.392 724.755 814.109 737.009 814.109 749.544C814.089 766.347 807.405 782.456 795.524 794.337C783.642 806.218 767.533 812.902 750.73 812.923V812.923ZM750.73 688.286C738.615 688.286 726.771 691.879 716.697 698.61C706.623 705.341 698.772 714.908 694.135 726.101C689.499 737.295 688.286 749.612 690.649 761.495C693.013 773.378 698.847 784.293 707.414 792.86C715.981 801.427 726.897 807.261 738.78 809.625C750.662 811.988 762.979 810.775 774.173 806.139C785.366 801.502 794.933 793.651 801.665 783.577C808.396 773.503 811.988 761.66 811.988 749.544C811.972 733.302 805.513 717.73 794.028 706.246C782.544 694.761 766.972 688.302 750.73 688.286V688.286Z" fill="#84361C"/>
<path d="M771.984 736.222C769.853 736.154 767.741 736.64 765.855 737.634C763.969 738.629 762.374 740.096 761.227 741.893C766.006 746.227 776.595 746.688 783.803 741.417C782.281 739.795 780.447 738.498 778.41 737.605C776.374 736.712 774.177 736.242 771.954 736.222M771.877 737.206C776.011 737.129 779.884 739.019 780.437 740.91C778.224 743.236 775.208 744.633 772.002 744.816C768.796 744.998 765.641 743.953 763.178 741.893C764.116 740.448 765.408 739.267 766.93 738.46C768.452 737.653 770.154 737.248 771.877 737.283" fill="#83371B"/>
<path d="M772.783 733.254C766.544 733.254 765.099 734.699 762.241 737.096C759.382 739.493 757.922 739.002 757.446 739.493C756.969 739.985 757.446 741.414 758.399 740.923C760.47 739.899 762.402 738.613 764.146 737.096C767.035 734.683 769.894 734.699 772.783 734.699C781.405 734.699 786.2 741.876 787.168 741.399C788.136 740.923 782.358 733.254 772.783 733.254Z" fill="#84361C"/>
<path d="M790.027 736.129C779.008 726.539 765.099 725.11 757.446 732.302C755.611 734.649 754.362 737.399 753.804 740.325C752.836 745.78 754.557 751.682 758.814 757.722C758.097 757.84 757.433 758.172 756.908 758.674C753.194 752.033 751.814 744.339 752.989 736.821C753.326 734.952 753.84 733.12 754.526 731.35C765.099 722.713 779.484 721.76 790.027 736.129Z" fill="#84361C"/>
<path d="M771.83 736.59C772.684 736.59 773.519 736.843 774.229 737.318C774.94 737.792 775.493 738.467 775.82 739.256C776.147 740.045 776.232 740.913 776.066 741.751C775.899 742.589 775.488 743.358 774.884 743.962C774.28 744.566 773.51 744.977 772.673 745.144C771.835 745.31 770.967 745.225 770.178 744.898C769.389 744.571 768.714 744.018 768.24 743.308C767.765 742.597 767.512 741.762 767.512 740.908C767.512 739.763 767.967 738.665 768.777 737.855C769.586 737.045 770.685 736.59 771.83 736.59" fill="#84361C"/>
<path d="M784.295 743.798C776.15 750.037 768.005 749.545 763.195 746.671C758.384 743.798 758.415 742.845 759.368 742.845C760.321 742.845 761.289 743.798 765.116 745.719C768.942 747.64 774.705 747.64 784.295 743.798Z" fill="#84361C"/>
<path d="M741.201 758.168C740.125 758.349 739.158 758.931 738.495 759.798C737.833 760.664 737.524 761.75 737.631 762.835C737.739 763.921 738.254 764.925 739.074 765.645C739.893 766.365 740.956 766.746 742.046 766.713C742.731 766.717 743.407 766.554 744.015 766.238C744.623 765.922 745.145 765.463 745.535 764.899C747.087 765.874 748.898 766.356 750.729 766.282H751.298C753.125 766.36 754.932 765.877 756.477 764.899C756.871 765.462 757.396 765.921 758.006 766.236C758.616 766.552 759.294 766.716 759.981 766.713C761.071 766.746 762.133 766.365 762.953 765.645C763.773 764.925 764.288 763.921 764.396 762.835C764.503 761.75 764.194 760.664 763.531 759.798C762.869 758.931 761.902 758.349 760.826 758.168C761.468 758.398 762.007 758.847 762.35 759.436C762.693 760.025 762.816 760.716 762.698 761.387C762.58 762.058 762.229 762.666 761.707 763.104C761.184 763.541 760.524 763.78 759.842 763.777C759.107 763.767 758.402 763.48 757.87 762.973C757.337 762.466 757.015 761.776 756.969 761.042C756.452 762.189 755.615 763.162 754.559 763.845C753.502 764.528 752.271 764.891 751.013 764.891C749.756 764.891 748.524 764.528 747.468 763.845C746.412 763.162 745.575 762.189 745.058 761.042C745.012 761.776 744.69 762.466 744.157 762.973C743.624 763.48 742.92 763.767 742.184 763.777C741.503 763.78 740.843 763.541 740.32 763.104C739.798 762.666 739.446 762.058 739.329 761.387C739.211 760.716 739.334 760.025 739.677 759.436C740.019 758.847 740.559 758.398 741.201 758.168" fill="#84361C"/>
<path d="M745.888 770.922C741.078 770.922 739.188 775.256 734.885 778.145C737.282 777.192 739.157 775.302 742.569 773.381C745.981 771.46 748.716 773.796 750.699 773.796C752.604 773.796 755.463 771.46 758.829 773.381C762.194 775.302 764.131 777.192 766.513 778.145C762.179 775.256 760.227 770.922 755.432 770.922C753.76 771.121 752.142 771.643 750.668 772.459V772.459C749.193 771.647 747.575 771.125 745.904 770.922" fill="#84361C"/>
<path d="M744.26 776.61C741.543 776.789 738.859 777.305 736.269 778.146C744.906 776.241 746.811 779.13 750.638 779.13H750.73C754.557 779.13 756.462 776.241 765.084 778.146C755.494 775.273 753.604 777.163 750.73 777.163H750.638C748.525 776.847 746.395 776.662 744.26 776.61" fill="#84361C"/>
<path d="M736.714 778.085C736.105 778.049 735.494 778.049 734.885 778.085C744.966 779.038 740.11 784.817 750.668 784.817C761.211 784.817 756.447 779.038 766.513 778.085C756.032 777.209 759.366 783.357 750.729 783.357C742.63 783.357 745.12 777.916 736.775 778.024" fill="#84361C"/>
<path d="M759.368 793.653C759.417 792.489 759.23 791.327 758.819 790.237C758.407 789.147 757.779 788.152 756.973 787.311C756.167 786.47 755.199 785.801 754.128 785.344C753.056 784.887 751.903 784.651 750.739 784.651C749.574 784.651 748.421 784.887 747.349 785.344C746.278 785.801 745.31 786.47 744.504 787.311C743.698 788.152 743.07 789.147 742.658 790.237C742.247 791.327 742.06 792.489 742.109 793.653C742.569 791.709 743.671 789.978 745.237 788.739C746.803 787.501 748.742 786.827 750.739 786.827C752.735 786.827 754.674 787.501 756.24 788.739C757.806 789.978 758.908 791.709 759.368 793.653" fill="#84361C"/>
<path d="M711.985 736.129C723.066 726.493 736.897 725.11 744.582 732.302C746.382 734.654 747.603 737.397 748.147 740.309C749.1 745.765 747.409 751.666 743.122 757.706C743.845 757.818 744.516 758.151 745.043 758.659C748.746 752.014 750.12 744.321 748.946 736.805C748.609 734.936 748.095 733.104 747.409 731.334C736.897 722.712 722.528 721.759 711.985 736.129Z" fill="#84361C"/>
<path d="M729.213 733.254C735.437 733.254 736.897 734.699 739.756 737.096C742.614 739.493 744.074 739.002 744.55 739.493C745.027 739.985 744.55 741.414 743.582 740.923C741.516 739.897 739.59 738.611 737.85 737.096C734.961 734.683 732.087 734.699 729.213 734.699C720.576 734.699 715.781 741.876 714.828 741.399C713.875 740.923 719.623 733.254 729.213 733.254Z" fill="#84361C"/>
<path d="M728.937 736.222C726.807 736.154 724.694 736.64 722.808 737.634C720.922 738.629 719.327 740.096 718.18 741.893C722.975 746.227 733.548 746.688 740.756 741.417C739.236 739.793 737.402 738.494 735.365 737.601C733.328 736.708 731.131 736.239 728.907 736.222M728.907 737.206C733.056 737.129 736.929 739.019 737.451 740.91C735.244 743.234 732.233 744.63 729.032 744.813C725.832 744.995 722.682 743.951 720.224 741.893C721.158 740.448 722.446 739.267 723.966 738.46C725.486 737.653 727.186 737.248 728.907 737.283" fill="#83371B"/>
<path d="M729.506 736.59C730.361 736.587 731.197 736.837 731.91 737.31C732.622 737.783 733.178 738.456 733.507 739.245C733.836 740.034 733.924 740.903 733.759 741.741C733.594 742.58 733.184 743.351 732.581 743.956C731.977 744.562 731.208 744.975 730.37 745.143C729.532 745.311 728.662 745.226 727.873 744.9C727.083 744.573 726.407 744.02 725.932 743.309C725.457 742.599 725.203 741.763 725.203 740.908C725.203 739.766 725.656 738.67 726.462 737.86C727.269 737.051 728.364 736.594 729.506 736.59" fill="#84361C"/>
<path d="M717.733 743.798C725.879 750.037 734.024 749.545 738.834 746.671C743.644 743.798 743.614 742.845 742.661 742.845C741.708 742.845 740.74 743.798 736.913 745.719C733.086 747.64 727.323 747.64 717.733 743.798Z" fill="#84361C"/>
</g>
</svg>
