<svg width="1500" height="1500" viewBox="0 0 1500 1500" fill="none" xmlns="http://www.w3.org/2000/svg">
<mask id="mask0_3324_16932" style="mask-type:alpha" maskUnits="userSpaceOnUse" x="214" y="214" width="1072" height="1072">
<circle cx="750" cy="750" r="536" fill="#D9D9D9"/>
</mask>
<g mask="url(#mask0_3324_16932)">
<path d="M1554.65 213H-55V1287.18H1554.65V213Z" fill="#009B3A"/>
<path d="M228.299 750.087L749.827 1083.82L1271.35 750.087L749.827 416.353L228.299 750.087Z" fill="#FEDF00"/>
<path d="M749.827 970.45C871.286 970.45 969.748 871.79 969.748 750.088C969.748 628.386 871.286 529.727 749.827 529.727C628.368 529.727 529.905 628.386 529.905 750.088C529.905 871.79 628.368 970.45 749.827 970.45Z" fill="#002776"/>
<mask id="mask1_3324_16932" style="mask-type:alpha" maskUnits="userSpaceOnUse" x="529" y="529" width="441" height="442">
<path d="M749.828 970.449C871.287 970.449 969.749 871.789 969.749 750.087C969.749 628.385 871.287 529.726 749.828 529.726C628.368 529.726 529.906 628.385 529.906 750.087C529.906 871.789 628.368 970.449 749.828 970.449Z" fill="#002776"/>
</mask>
<g mask="url(#mask1_3324_16932)">
<path d="M90.0625 1190.81C90.0625 895.246 329.171 655.654 624.156 655.654C919.141 655.654 1158.25 895.246 1158.25 1190.81H1126.83C1126.83 912.63 901.779 687.128 624.156 687.128C346.534 687.128 121.483 912.662 121.483 1190.81H90.0625Z" fill="white"/>
</g>
<path d="M632.462 681.859L651.306 682.524L651.434 678.629L636.186 678.092L636.379 672.727L648.333 673.145L648.462 669.551L636.497 669.068L636.647 664.872L651.005 665.376L651.102 661.556L633.159 660.934L632.462 681.859Z" fill="#009B3A"/>
<path d="M659.032 683.019L662.616 683.33L663.861 668.994L666.791 683.695L670.01 683.985L675.44 670.035L674.184 684.371L677.758 684.683L679.582 663.779L674.367 663.317L669.001 677.267L666.125 662.544L660.91 662.083L659.032 683.019Z" fill="#009B3A"/>
<path d="M702.427 687.902L717.912 690.531L718.523 686.989L706.58 684.929L707.384 680.207L717.118 681.881L717.729 678.329L707.975 676.688L708.533 673.468L720.101 675.464L720.712 671.923L705.603 669.315L702.427 687.902Z" fill="#009B3A"/>
<path d="M832.229 715.061L839.505 718.237L838.314 720.984L831.038 717.818L832.229 715.061Z" fill="#009B3A"/>
<path d="M836.759 717.035L839.506 718.237L835.332 727.852L832.585 726.661L836.759 717.035Z" fill="#009B3A"/>
<path d="M896.617 753.479C895.544 755.25 896.617 757.224 899.16 758.845C901.703 760.465 903.453 760.401 904.129 759.263C906.425 755.658 893.172 750.41 897.261 744.122C900.781 738.756 906.801 742.931 909.065 744.379C911.329 745.828 914.978 749.573 912.145 753.898L908.292 751.44C909.494 749.541 908.174 747.728 906.146 746.44C904.118 745.152 902.605 744.616 901.435 746.44C899.482 749.369 912.467 754.907 908.485 761.163C905.545 765.777 900.448 763.76 897.035 761.581C894.138 759.736 889.803 755.368 892.625 750.947L896.617 753.479Z" fill="#009B3A"/>
<path d="M866.064 743.21L882.472 752.513L884.382 749.122L871.097 741.611L873.759 736.91L884.168 742.823L885.938 739.69L875.518 733.788L877.59 730.128L890.08 737.211L892.001 733.809L876.377 724.956L866.064 743.21Z" fill="#009B3A"/>
<path d="M919.087 768.33C917.874 770.036 918.915 772.065 921.341 773.803C923.766 775.541 925.504 775.584 926.288 774.479C928.756 771.002 915.814 765.057 920.214 759.005C924.013 753.8 929.807 758.307 932.018 759.874C934.228 761.441 937.662 765.379 934.604 769.532L930.88 766.881C932.19 765.046 930.955 763.158 929.013 761.763C927.071 760.368 925.569 759.767 924.302 761.537C922.156 764.36 934.872 770.562 930.58 776.561C927.361 781.014 922.414 778.707 919.13 776.389C916.329 774.382 912.219 769.8 915.277 765.529L919.087 768.33Z" fill="#009B3A"/>
<path d="M570.34 674.111C569.632 668.359 564.878 664.206 559.706 664.839C554.534 665.472 550.928 670.655 551.625 676.407C552.323 682.159 557.088 686.312 562.26 685.668C567.432 685.024 571.038 679.863 570.34 674.111ZM560.961 668.874C568.076 668.874 568.076 681.665 560.961 681.665C553.847 681.665 553.868 668.874 560.961 668.874Z" fill="#009B3A"/>
<path d="M956.249 789.16C958.91 784.02 957.322 777.903 952.697 775.499C948.072 773.096 942.17 775.328 939.509 780.479C936.847 785.629 938.436 791.735 943.061 794.139C947.686 796.543 953.588 794.311 956.249 789.16ZM951.485 779.502C957.354 783.537 950.143 794.085 944.273 790.061C938.403 786.037 945.604 775.521 951.485 779.599V779.502Z" fill="#009B3A"/>
<path d="M622.943 664.874C620.625 661.15 615.978 660.979 615.978 660.979L605.505 661.139L605.87 682.129C605.87 682.129 614.176 682.129 616.386 681.915C617.662 681.757 618.893 681.347 620.008 680.707C621.122 680.068 622.098 679.212 622.878 678.191C624.152 676.278 624.738 673.989 624.542 671.699C624.767 669.31 624.206 666.914 622.943 664.874V664.874ZM614.358 678.137H609.658C609.658 678.137 609.475 667.535 609.432 664.949C613.725 664.895 613.907 664.895 615.592 664.895C618.693 664.949 620.002 667.267 620.657 668.769C620.838 670.028 620.938 671.297 620.958 672.568C620.841 674.126 620.14 675.583 618.994 676.646C617.691 677.685 616.055 678.215 614.39 678.137H614.358Z" fill="#009B3A"/>
<path d="M594.335 673.961C595.675 672.762 596.63 671.194 597.082 669.454C597.33 667.725 596.882 665.969 595.836 664.57C594.789 663.172 593.23 662.246 591.502 661.996L590.997 661.942C588.851 662.028 578.12 662.779 578.12 662.779L579.279 683.737L583.164 683.469L582.616 675.689L589.356 675.217L590.976 675.099C590.976 675.099 593.058 678.522 593.262 680.636C593.337 681.398 593.38 682.17 593.38 682.932H597.157C597.209 680.9 596.878 678.876 596.18 676.966C595.718 675.878 595.096 674.865 594.335 673.961V673.961ZM591.974 670.742C591.158 671.429 588.873 671.461 588.873 671.461L582.434 671.89C582.434 671.89 582.176 668.231 582.058 666.525C583.046 666.525 588.186 666.095 588.282 666.095C589.021 666.088 589.759 666.041 590.493 665.956C591.122 666.028 591.712 666.299 592.178 666.728C592.454 666.938 592.676 667.212 592.823 667.526C592.971 667.839 593.04 668.185 593.026 668.531C593.005 668.944 592.899 669.348 592.714 669.717C592.53 670.086 592.27 670.413 591.952 670.677L591.974 670.742Z" fill="#009B3A"/>
<path d="M815.553 705.876C816.337 700.135 812.806 694.909 807.644 694.19C802.483 693.471 797.675 697.56 796.913 703.29C796.152 709.021 799.661 714.268 804.811 714.987C809.962 715.706 814.759 711.618 815.553 705.876ZM807.848 698.418C814.727 700.243 811.454 712.605 804.575 710.781C797.697 708.956 800.97 696.583 807.848 698.418Z" fill="#009B3A"/>
<path d="M785.454 697.742C787.116 697.046 788.534 695.874 789.531 694.373C789.921 693.598 790.155 692.755 790.218 691.89C790.282 691.026 790.175 690.157 789.903 689.334C789.631 688.511 789.199 687.749 788.633 687.093C788.066 686.437 787.376 685.898 786.602 685.509L786.205 685.327C784.144 684.704 773.81 681.914 773.81 681.914L768.069 702.099L771.825 703.108L773.853 695.596L780.367 697.356L781.945 697.785C781.945 697.785 782.792 701.691 782.299 703.752C782.128 704.501 781.913 705.239 781.655 705.962L785.239 707.164C785.969 705.261 786.333 703.236 786.312 701.198C786.2 700.009 785.911 698.845 785.454 697.742V697.742ZM784.295 693.89C783.297 694.265 781.075 693.536 781.075 693.536L774.808 691.819L776.214 686.614C777.137 686.936 782.148 688.213 782.234 688.245C783.222 688.557 784.381 688.836 784.381 688.836C784.95 689.111 785.419 689.557 785.722 690.113C785.911 690.403 786.029 690.735 786.066 691.08C786.103 691.424 786.059 691.773 785.937 692.098C785.799 692.493 785.583 692.855 785.301 693.163C785.018 693.471 784.676 693.719 784.295 693.89V693.89Z" fill="#009B3A"/>
<path d="M861.526 728.626C863.219 728.065 864.711 727.021 865.818 725.621C866.733 724.134 867.021 722.344 866.619 720.644C866.216 718.944 865.157 717.473 863.672 716.554L863.275 716.328C861.268 715.524 851.213 711.864 851.213 711.864L843.787 731.491L847.436 732.822L850.097 725.493L856.439 727.8L857.974 728.358C857.974 728.358 858.489 732.328 857.813 734.335C857.58 735.066 857.304 735.783 856.986 736.481L860.442 738.026C861.31 736.189 861.827 734.206 861.965 732.178C861.997 730.979 861.848 729.782 861.526 728.626V728.626ZM860.699 724.688C859.621 724.741 858.545 724.531 857.566 724.076L851.481 721.833C851.481 721.833 852.726 718.378 853.316 716.758C854.207 717.165 859.09 718.904 859.175 718.904C860.141 719.301 861.247 719.676 861.247 719.676C861.807 720.011 862.246 720.514 862.502 721.114C862.655 721.423 862.735 721.763 862.735 722.107C862.735 722.451 862.655 722.791 862.502 723.1C862.326 723.474 862.076 723.808 861.766 724.081C861.456 724.354 861.093 724.561 860.699 724.688V724.688Z" fill="#009B3A"/>
<path d="M759.688 690.734C761.329 689.994 762.717 688.789 763.68 687.268C764.431 685.694 764.526 683.886 763.944 682.242C763.363 680.598 762.152 679.252 760.579 678.5C760.436 678.427 760.289 678.363 760.139 678.307C758.057 677.728 747.669 675.185 747.669 675.185L742.411 695.509L746.188 696.432L748.034 688.856L754.591 690.466L756.179 690.852M758.433 686.914C757.445 687.311 755.213 686.635 755.213 686.635L748.914 685.068L750.191 679.831C751.125 680.132 756.158 681.291 756.254 681.323C757.252 681.602 758.4 681.859 758.4 681.859C758.979 682.117 759.46 682.553 759.774 683.104C759.973 683.388 760.101 683.716 760.146 684.06C760.19 684.404 760.151 684.753 760.031 685.079C759.905 685.481 759.695 685.852 759.416 686.168C759.137 686.484 758.794 686.738 758.411 686.914H758.433Z" fill="#009B3A"/>
<path d="M837.596 717.25C837.049 717.025 836.49 716.832 835.922 716.671C834.29 719.761 830.663 721.972 827.433 719.751C821.553 715.727 828.764 705.167 834.645 709.202C835.273 709.614 835.796 710.17 836.169 710.822C836.542 711.475 836.755 712.207 836.791 712.958C837.681 713.344 838.647 713.516 839.538 713.924L840.611 714.45C840.816 712.6 840.47 710.732 839.617 709.078C838.763 707.425 837.44 706.061 835.814 705.157C831.2 702.753 825.287 704.974 822.626 710.125C819.965 715.276 821.553 721.382 826.178 723.786C830.803 726.189 836.705 723.957 839.366 718.817C839.474 718.613 839.559 718.399 839.656 718.195L837.596 717.25Z" fill="#009B3A"/>
<path d="M826.296 678.865L821.639 682.246L823.42 687.729L818.763 684.349L814.105 687.729L815.887 682.246L811.229 678.865H816.981L818.763 673.382L820.544 678.865H826.296Z" fill="white"/>
<path d="M561.336 707.593L566.873 711.628L564.759 718.152L570.296 714.117L575.844 718.152L573.72 711.628L579.267 707.593H572.41L570.296 701.068L568.182 707.593H561.336Z" fill="white"/>
<path d="M803.846 737.05L807.677 739.84L806.217 744.358L810.048 741.568L813.879 744.358L812.42 739.84L816.251 737.05H811.508L810.048 732.532L808.6 737.05H803.846Z" fill="white"/>
<path d="M607.341 788.742L609.68 790.395L608.779 793.185L611.107 791.489L613.447 793.185L612.556 790.448L614.885 788.742H611.998L611.107 785.995L610.217 788.742H607.341Z" fill="white"/>
<path d="M589.709 793.71L587.628 800.234H580.781L586.329 804.269L584.204 810.794L589.752 806.759L595.29 810.794L593.176 804.269L598.713 800.234H591.866L589.752 793.71" fill="white"/>
<path d="M555.348 820.516L559.962 823.875L558.202 829.315L562.816 825.946L567.431 829.315L565.671 823.875L570.285 820.516H564.576L562.816 815.075L561.057 820.516H555.348Z" fill="white"/>
<path d="M658.859 756.504L663.388 759.799L661.66 765.121L666.178 761.827L670.706 765.121L668.979 759.799L673.507 756.504H667.906L666.178 751.171L664.45 756.504H658.859Z" fill="white"/>
<path d="M629.285 822.319L633.46 825.356L631.871 830.271L636.035 827.234L640.209 830.271L638.621 825.356L642.785 822.319H637.634L636.035 817.404L634.447 822.319H629.285Z" fill="white"/>
<path d="M623.083 845.379L626.914 848.169L625.455 852.687L629.286 849.886L633.116 852.687L631.657 848.169L635.488 845.379H630.756L629.286 840.861L627.848 845.379H623.083Z" fill="white"/>
<path d="M652.786 862.925L658.323 866.96L656.209 873.484L661.747 869.449L667.284 873.484L665.17 866.96L670.707 862.925H663.861L661.747 856.4L659.633 862.925H652.786Z" fill="white"/>
<path d="M742.294 783.815L746.951 787.206L745.17 792.689L749.827 789.298L754.484 792.689L752.703 787.206L757.36 783.815H751.576L749.827 778.342L748.046 783.815H742.294Z" fill="white"/>
<path d="M721.39 803.668L725.231 806.458L723.761 810.976L727.592 808.175L731.434 810.976L729.964 806.458L733.805 803.668H729.062L727.603 799.15L726.133 803.668H721.39Z" fill="white"/>
<path d="M734.836 818.862L737.165 820.558L736.274 823.305L738.602 821.61L740.942 823.305L740.051 820.558L742.38 818.862H739.493L738.602 816.115L737.712 818.862H734.836Z" fill="white"/>
<path d="M767.715 803.076L772.372 806.467L770.591 811.951L775.237 808.56L779.895 811.951L778.124 806.467L782.771 803.076H777.019L775.237 797.593L773.488 803.076H767.715Z" fill="white"/>
<path d="M740.866 847.096L746.403 851.131L744.289 857.655L749.827 853.62L755.364 857.655L753.25 851.131L758.787 847.096H751.941L749.827 840.571L747.745 847.096H740.866Z" fill="white"/>
<path d="M746.81 921.538L748.591 922.826L747.915 924.918L749.685 923.63L751.467 924.918L750.78 922.826L752.561 921.538H750.362L749.685 919.445L749.02 921.538H746.81Z" fill="white"/>
<path d="M792.042 871.756L795.873 874.557L794.414 879.064L798.244 876.274L802.075 879.064L800.616 874.557L804.447 871.756H799.704L798.244 867.249L796.796 871.756H792.042Z" fill="white"/>
<path d="M808.032 895.955L812.69 899.336L810.908 904.819L815.565 901.428L820.223 904.819L818.441 899.336L823.088 895.955H817.336L815.565 890.472L813.784 895.955H808.032Z" fill="white"/>
<path d="M836.964 879.558L840.805 876.768H836.062L834.603 872.25L833.154 876.768H828.39L832.231 879.558L830.761 884.076L834.603 881.286L838.434 884.076L836.964 879.558Z" fill="white"/>
<path d="M852.845 869.448L856.686 872.238L855.216 876.756L859.058 873.966L862.889 876.756L861.419 872.238L865.261 869.448H860.517L859.058 864.941L857.588 869.448H852.845Z" fill="white"/>
<path d="M852.084 890.287L856.741 893.678L854.96 899.162L859.617 895.771L864.274 899.162L862.493 893.678L867.15 890.287H861.399L859.617 884.804L857.836 890.287H852.084Z" fill="white"/>
<path d="M853.938 913.307L857.768 916.097L856.309 920.615L860.14 917.825L863.971 920.615L862.512 916.097L866.343 913.307H861.578L860.14 908.789L858.691 913.307H853.938Z" fill="white"/>
<path d="M875.83 873.397L879.661 876.187L878.202 880.704L882.033 877.914L885.864 880.704L884.404 876.187L888.235 873.397H883.492L882.033 868.879L880.562 873.397H875.83Z" fill="white"/>
<path d="M892.099 861.98L896.756 865.36L894.975 870.844L899.632 867.463L904.289 870.844L902.508 865.36L907.165 861.98H901.413L899.632 856.496L897.883 861.98L892.238 861.947" fill="white"/>
<path d="M905.319 844.789L909.977 848.169L908.195 853.653L912.852 850.273L917.499 853.653L915.728 848.169L920.375 844.789H914.623L912.842 839.306L911.071 844.789H905.319Z" fill="white"/>
<path d="M894.921 824.357L900.458 828.392L898.344 834.917L903.881 830.882L909.418 834.917L907.304 828.392L912.842 824.357H905.995L903.881 817.833L901.767 824.357H894.921Z" fill="white"/>
<path d="M928.478 827.683L932.309 830.473L930.849 834.991L934.68 832.201L938.511 834.991L937.052 830.473L940.883 827.683H936.14L934.68 823.165L933.231 827.683H928.478Z" fill="white"/>
</g>
</svg>
