<svg fill="none" height="24" viewBox="0 0 24 24" width="24" xmlns="http://www.w3.org/2000/svg"><path d="m0 0h24v24h-24z" fill="#181a20"/><path d="m12 24c6.6274 0 12-5.3726 12-12 0-6.62742-5.3726-12-12-12-6.62742 0-12 5.37258-12 12 0 6.6274 5.37258 12 12 12z" fill="#181a20"/><path d="m7.61466 12.0023-1.80505 1.805-1.80961-1.805 1.80506-1.8051zm4.38764-4.38764 3.0963 3.09634 1.8051-1.80506-4.9014-4.90594-4.90597 4.90594 1.80506 1.80506zm6.1926 2.58254-1.805 1.8051 1.805 1.805 1.8051-1.805zm-6.1926 6.1927-3.09636-3.0964-1.80506 1.8051 4.90142 4.9059 4.9014-4.9059-1.8051-1.8051zm0-2.5826 1.805-1.805-1.805-1.8051-1.8096 1.8051z" fill="#f0b90b"/></svg>