<svg fill="none" height="24" viewBox="0 0 24 24" width="24" xmlns="http://www.w3.org/2000/svg"><path d="m0 0h24v24h-24z" fill="#854ce6"/><path d="m12 24c6.6274 0 12-5.3726 12-12 0-6.62742-5.3726-12-12-12-6.62742 0-12 5.37258-12 12 0 6.6274 5.37258 12 12 12z" fill="#854ce6"/><path d="m15.9325 18.8994.102-.0414 1.7097-.9941 1.7639-1.0236c.0941-.0513.1792-.1172.2519-.1953.129-.1358.2127-.3071.24-.4911 0-.0829 0-4.1421 0-4.2308-.0326-.2041-.1266-.3937-.27-.5444-.1342-.125-.2857-.2306-.4499-.3136l-3.2096-1.85208c-.1347-.06032-.281-.09152-.429-.09152-.1479 0-.2941.0312-.4289.09152-.054 0-.42.23076-1.2299.69822l-1.9677 1.14206-1.9438 1.1242c-.59989.3669-1.15782.6746-1.19982.6864-.1356.068-.28585.1024-.43792.1006-.15062.0003-.29969-.0298-.43796-.0887-.06599 0-1.85977-1.0592-1.95576-1.1302-.09393-.0705-.17682-.1542-.24597-.2485-.07677-.1156-.13164-.2439-.16198-.3788-.02143-.3942-.02143-.7892 0-1.18339-.04825-.45936-.03413-.92302.042-1.37869.03943-.11126.09391-.21675.16198-.31361.06809-.09182.15121-.17183.24597-.2367.07199-.04734 1.79977-1.05916 1.85376-1.10058.13924-.0632.29068-.09592.44394-.09592.15327 0 .30473.03272.44396.09592.05999.02959 1.7998 1.04141 1.9317 1.11834.1271.08505.232.1986.306.33135.0482.08137.0846.16901.108.26036v.08877.73964.74551l.7979-.45557.7859-.45562v-.73964c0-.82249 0-.79291-.054-.9586-.0729-.19915-.2019-.37362-.3719-.50294-.06-.04142-3.32364-1.93492-3.47962-2.01776l-.12597-.05917h-.05399-.59993l-.08999.0355c-.06599.02958-.52793.28995-1.79977 1.02368-.94188.54438-1.73379 1.00591-1.76378 1.02958-.10826.07439-.20057.16912-.27161.27879-.07103.10967-.1194.23209-.14234.36026v2.1716 2.17159c.02307.1314.07419.2564.14998.3669.07813.1105.17327.2083.28196.2899.078.0473 3.40758 1.9823 3.49157 2.0237.14361.0665.30029.1009.45894.1009.15864 0 .31534-.0344.45895-.1009l1.1998-.7042c.9779-.5917 1.2838-.7514 1.9378-1.1124.6539-.3609.8339-.4615 1.9437-1.1302l1.1999-.7278c.2515-.1138.5384-.1244.7979-.0295.042.0104.0823.0263.12.0473.072.0355 1.8777 1.1242 1.9317 1.1834.205.1603.342.3903.384.645v2.4201c-.0426.262-.1867.4975-.402.6568-.06.0414-1.7997 1.071-1.9377 1.1302-.1369.0602-.2851.0913-.435.0913-.1498 0-.2981-.0311-.4349-.0913-.048 0-.396-.2248-.9899-.5917l-.9658-.5917c-.1723-.1298-.3016-.3068-.372-.5089-.048-.148-.048-.1065-.054-.9349v-.7574l-.7859.4556-.7859.4556v.7633c0 .8284 0 .8225.042.9645.0341.1039.0847.2018.1499.29.0676.0902.1485.17.24.2367.054.0414 3.3716 1.9822 3.4496 2.0236.078.0415.12.0651.45.0651h.294z" fill="#fff"/></svg>