<svg width="20" height="20" viewBox="0 0 20 20" fill="none" xmlns="http://www.w3.org/2000/svg">
<path d="M15.7302 0.809509C13.4656 0.809509 11.6243 2.65078 11.6243 4.91533V9.4656C11.2011 9.48676 10.7778 9.50792 10.3122 9.50792C9.86773 9.50792 9.42328 9.52909 9 9.55025V4.89417C8.95767 2.62962 7.09524 0.809509 4.83069 0.851837C2.60846 0.894165 0.830689 2.67194 0.788361 4.89417V15.7513C0.830689 18.0159 2.69312 19.836 4.95767 19.7936C7.17989 19.7513 8.95767 17.9735 9 15.7513V11.2222C9.42328 11.201 9.84656 11.1799 10.3122 11.1799C10.7566 11.1799 11.2011 11.1587 11.6243 11.1376V15.7725C11.6667 18.037 13.5291 19.8571 15.7937 19.8148C18.0159 19.7725 19.7937 17.9947 19.836 15.7725V4.89417C19.836 2.62962 17.9947 0.809509 15.7302 0.809509ZM4.89418 2.48147C6.22752 2.48147 7.30688 3.56083 7.32804 4.89417V9.71956C6.1217 9.88888 4.95767 10.2275 3.83598 10.7143C3.34921 10.9259 2.90477 11.201 2.48149 11.5185V4.89417C2.48149 3.56083 3.56085 2.48147 4.89418 2.48147ZM7.32804 15.7513C7.32804 17.0846 6.24868 18.1852 4.89418 18.1852C3.56085 18.1852 2.46032 17.1058 2.46032 15.7513V14.6719C2.46032 13.7196 3.22223 12.7883 4.49207 12.2381C5.40212 11.8571 6.33333 11.582 7.30688 11.4127V15.7513H7.32804ZM15.7302 18.1852C14.3968 18.1852 13.3175 17.1058 13.2963 15.7725V10.9471C14.5026 10.7778 15.6667 10.4391 16.7884 9.95237C17.2751 9.74073 17.7196 9.4656 18.1429 9.14814V15.7513C18.1429 17.0846 17.0635 18.1852 15.7302 18.1852ZM16.1111 8.42856C15.2011 8.80951 14.2698 9.08464 13.2963 9.25396V4.89417C13.2963 3.56083 14.3757 2.4603 15.7302 2.4603C17.0635 2.4603 18.164 3.53967 18.164 4.89417V5.97353C18.164 6.94708 17.4021 7.85713 16.1111 8.42856Z" fill="url(#paint0_linear)"/>
<defs>
<linearGradient id="paint0_linear" x1="2.02523" y1="18.6255" x2="18.6406" y2="2.01012" gradientUnits="userSpaceOnUse">
<stop stop-color="#00ADE8"/>
<stop offset="1" stop-color="#69FABC"/>
</linearGradient>
</defs>
</svg>
