<?xml version="1.0" encoding="utf-8"?>
<!-- Generator: Adobe Illustrator 25.4.1, SVG Export Plug-In . SVG Version: 6.00 Build 0)  -->
<svg version="1.1" id="图层_1" xmlns="http://www.w3.org/2000/svg" xmlns:xlink="http://www.w3.org/1999/xlink" x="0px" y="0px"
	 viewBox="0 0 500 500" style="enable-background:new 0 0 500 500;" xml:space="preserve">
<style type="text/css">
	.st0{fill:#48A3FF;}
</style>
<g>
	<g>
		<g>
			<path class="st0" d="M250,414.8c-4.8,0-8.7-3.9-8.7-8.7v-44.8c0-4.8,3.9-8.7,8.7-8.7c4.8,0,8.7,3.9,8.7,8.7v44.8
				C258.7,410.9,254.8,414.8,250,414.8z M368.2,396.5c-4.8,0-8.7-3.9-8.7-8.7v-29.9c0-4.8,3.9-8.7,8.7-8.7s8.7,3.9,8.7,8.7v29.9
				C376.9,392.6,373,396.5,368.2,396.5z M131.8,370c-4.8,0-8.7-3.9-8.7-8.7v-44.8c0-4.8,3.9-8.7,8.7-8.7s8.7,3.9,8.7,8.7v44.8
				C140.5,366.1,136.6,370,131.8,370z M249.5,340.6c-33.8,0-65.5-13.3-89.4-37.4c-23.5-23.9-36.7-55.4-37-88.9
				c-0.1-0.4-0.1-0.9-0.1-1.4v-119c0-3.5,2.1-6.7,5.4-8c1.1-0.4,2.2-0.6,3.4-0.7c0,0,0,0,0,0c2.2,0,4.5,0.9,6.2,2.6l28.5,28.8
				c23-20.3,52.2-31.4,83-31.4c33.8,0,65.5,13.3,89.4,37.4c23.5,23.9,36.7,55.4,37,88.9c0.1,0.4,0.1,0.9,0.1,1.4v119
				c0,3.5-2.1,6.7-5.4,8c-1.1,0.4-2.2,0.7-3.3,0.7c0,0-0.1,0-0.1,0c-2.2,0-4.5-0.9-6.2-2.6l-28.5-28.8
				C309.6,329.6,280.4,340.6,249.5,340.6z M140.4,211.6c0.1,0.4,0.1,0.9,0.1,1.3c0,29.5,11.4,57.2,32,78.1
				c20.6,20.8,48,32.3,77.1,32.3c26.2,0,51.1-9.3,70.8-26.4L140.4,115V211.6z M339.4,291.4l19.2,19.4v-96.6
				c-0.1-0.4-0.1-0.9-0.1-1.3c0-29.5-11.4-57.2-32-78.1c-20.6-20.8-48-32.3-77.1-32.3c-26.2,0-51,9.3-70.8,26.4l77.7,78.6l82.6,83.4
				C339.1,291.1,339.3,291.2,339.4,291.4z"/>
		</g>
	</g>
</g>
</svg>
