<svg width="1500" height="1500" viewBox="0 0 1500 1500" fill="none" xmlns="http://www.w3.org/2000/svg">
<mask id="mask0_3324_16213" style="mask-type:alpha" maskUnits="userSpaceOnUse" x="214" y="214" width="1072" height="1072">
<circle cx="750" cy="750" r="536" fill="#D9D9D9"/>
</mask>
<g mask="url(#mask0_3324_16213)">
<path d="M1788.46 168.481H69.46V1314.48H1788.46V168.481Z" fill="#FF0000"/>
<path d="M757.239 168.481H69.46V1314.48H757.239V168.481Z" fill="#006600"/>
<path fill-rule="evenodd" clip-rule="evenodd" d="M981.343 919.031C894.825 916.429 498.125 668.643 495.398 629.191L517.311 592.627C556.658 649.845 962.213 890.811 1002.04 882.238L981.343 919.019" fill="#FFFF00"/>
<path d="M981.343 919.031C894.825 916.429 498.125 668.643 495.398 629.191L517.311 592.627C556.658 649.845 962.213 890.811 1002.04 882.238L981.343 919.019" stroke="black" stroke-width="0.57" stroke-linecap="round" stroke-linejoin="round"/>
<path fill-rule="evenodd" clip-rule="evenodd" d="M512.039 587.764C504.273 608.652 615.708 677.468 749.774 758.921C883.839 840.375 999.438 890.686 1008.01 883.491C1008.53 882.563 1012.23 876.215 1011.88 876.261C1010.28 878.678 1006.38 879.446 1000.28 877.693C964.052 867.255 869.582 823.933 752.584 753.066C635.586 682.2 533.81 616.879 517.992 589.128C516.737 586.597 516.142 583.791 516.26 580.97H515.881L512.509 586.859L512.05 587.776L512.039 587.764ZM983.368 920.156C981.888 922.814 979.158 922.906 973.951 922.333C941.547 918.758 843.188 870.99 726.879 801.418C591.528 720.469 479.692 646.738 491.817 627.431L495.12 621.599L495.762 621.805C484.865 654.472 716.418 786.798 730.056 795.174C864.041 878.083 977.002 926.503 986.992 913.923L983.356 920.167L983.368 920.156Z" fill="#FFFF00" stroke="black" stroke-width="0.57" stroke-linecap="round" stroke-linejoin="round"/>
<path fill-rule="evenodd" clip-rule="evenodd" d="M757.869 653.604C844.435 652.921 951.297 641.665 1012.8 616.909L999.562 595.172C963.22 615.486 855.785 628.848 757.17 630.849C640.561 629.762 558.164 618.818 516.862 590.834L504.366 613.971C580.2 646.362 657.844 653.303 757.834 653.604" fill="#FFFF00"/>
<path d="M757.869 653.604C844.435 652.921 951.297 641.665 1012.8 616.909L999.562 595.172C963.22 615.486 855.785 628.848 757.17 630.849C640.561 629.762 558.164 618.818 516.862 590.834L504.366 613.971C580.2 646.362 657.844 653.303 757.834 653.604" stroke="black" stroke-width="0.57" stroke-linecap="round" stroke-linejoin="round"/>
<path fill-rule="evenodd" clip-rule="evenodd" d="M1016.38 617.161C1014.26 620.621 974.154 634.461 915.08 644.76C874.987 650.908 822.762 656.167 757.559 656.294C695.609 656.294 645 651.911 606.683 646.687C544.664 636.837 512.658 623.182 500.779 618.395C501.925 616.089 502.635 614.543 503.723 612.421C537.791 626.077 569.946 634.334 607.622 640.101C657.264 646.744 707.298 649.981 757.376 649.789C809.729 649.819 862.011 645.91 913.785 638.094C974.372 628.256 1007.47 615.604 1012.11 609.722L1016.39 617.161H1016.38ZM1004.81 595.179C998.245 600.484 965.517 612.167 907.955 621.429C858.38 628.564 808.359 632.094 758.281 631.993C698.989 632.051 650.545 628.026 613.705 622.628C555.283 614.935 524.125 601.072 512.899 597.024C514.044 595.087 515.19 593.161 516.335 591.258C525.064 595.675 555.088 607.946 614.358 616.4C650.785 621.602 699.298 625.477 758.292 625.419C808.011 625.49 857.669 621.937 906.878 614.785C964.738 606.77 995.873 591.869 1000.6 588.144L1004.82 595.202L1004.81 595.179Z" fill="#FFFF00" stroke="black" stroke-width="0.57" stroke-linecap="round" stroke-linejoin="round"/>
<path fill-rule="evenodd" clip-rule="evenodd" d="M473.211 757.402C526.505 786.091 644.89 800.561 756.924 801.56C858.951 801.721 991.803 785.769 1041.5 759.41L1040.12 730.721C1024.58 755.049 882.176 778.379 755.824 777.415C629.472 776.451 512.095 756.897 472.981 731.604L473.211 757.39" fill="#FFFF00"/>
<path d="M473.211 757.402C526.505 786.091 644.89 800.561 756.924 801.56C858.951 801.721 991.803 785.769 1041.5 759.41L1040.12 730.721C1024.58 755.049 882.176 778.379 755.824 777.415C629.472 776.451 512.095 756.897 472.981 731.604L473.211 757.39" stroke="black" stroke-width="0.57" stroke-linecap="round" stroke-linejoin="round"/>
<path fill-rule="evenodd" clip-rule="evenodd" d="M1044.19 753.231V760.135C1036.72 769.099 989.865 782.642 931.104 792.181C886.37 799.085 828.078 804.252 755.426 804.252C686.41 804.252 631.376 799.316 588.684 792.745C521.217 782.884 478.066 765.624 469.395 760.469V752.414C495.455 769.778 565.962 782.516 589.625 786.37C632.065 792.895 686.743 797.797 755.415 797.797C827.677 797.797 885.705 792.642 930.14 785.807C972.293 779.696 1032.35 763.817 1044.18 753.231H1044.19ZM1044.19 728.802V735.706C1036.71 744.659 989.854 758.213 931.092 767.752C886.358 774.657 828.078 779.812 755.426 779.812C686.41 779.812 631.365 774.887 588.684 768.305C521.217 758.455 478.055 741.195 469.395 736.086V728.031C495.42 745.383 565.928 758.087 589.602 761.965C632.042 768.5 686.72 773.402 755.392 773.402C827.654 773.402 885.67 768.247 930.117 761.401C972.27 755.302 1032.33 739.411 1044.14 728.825L1044.19 728.802Z" fill="#FFFF00" stroke="black" stroke-width="0.57" stroke-linecap="round" stroke-linejoin="round"/>
<path fill-rule="evenodd" clip-rule="evenodd" d="M756.837 914.551C634.262 913.814 529.238 880.987 507.057 875.564L523.231 900.964C562.412 917.51 664.869 942.185 758.018 939.445C851.167 936.705 932.578 929.474 989.939 901.448L1006.53 875.092C967.426 893.584 834.385 914.344 756.837 914.54" fill="#FFFF00"/>
<path d="M756.837 914.551C634.262 913.814 529.238 880.987 507.057 875.564L523.231 900.964C562.412 917.51 664.869 942.185 758.018 939.445C851.167 936.705 932.578 929.474 989.939 901.448L1006.53 875.092C967.426 893.584 834.385 914.344 756.837 914.54" stroke="black" stroke-width="0.57" stroke-linecap="round" stroke-linejoin="round"/>
<path fill-rule="evenodd" clip-rule="evenodd" d="M995.55 895.388C993.11 899.137 990.635 902.841 988.115 906.429C961.064 916.04 918.455 926.112 900.478 929.054C863.747 936.68 806.907 942.345 756.473 942.345C647.95 940.742 559.111 919.351 517.315 901.099L513.946 895.261L514.496 894.384L520.225 896.622C594.548 923.401 678.025 934.084 757.103 936C807.331 936.173 857.617 930.231 898.29 922.881C960.64 910.294 985.857 900.81 993.591 896.507L995.562 895.353L995.55 895.388ZM1009.92 871.516L1010.11 871.747C1008.29 874.839 1006.41 877.989 1004.49 881.15C990.062 886.342 950.924 897.88 893.753 905.921C856.093 911.09 832.686 916.097 757.767 917.563C617.371 913.963 526.469 886.319 504.872 879.489L501.676 873.305C583.022 894.695 666.144 909.625 757.767 911.159C826.316 909.683 855.474 904.606 892.825 899.472C959.483 889.088 993.064 877.989 1003.15 874.793C1003.02 874.609 1002.87 874.424 1002.7 874.216L1009.93 871.505L1009.92 871.516Z" fill="#FFFF00" stroke="black" stroke-width="0.55" stroke-linecap="round" stroke-linejoin="round"/>
<path fill-rule="evenodd" clip-rule="evenodd" d="M1011.69 735.165C1012.09 815.811 970.85 888.179 937.641 920.109C890.675 965.282 828.347 994.334 755.594 995.676C674.342 997.166 597.741 944.163 577.19 920.866C537.016 875.338 504.312 817.519 503.258 739.602C508.241 651.573 542.755 590.269 592.803 548.215C642.852 506.161 709.487 485.696 764.976 487.163C829.011 488.849 903.802 520.309 955.477 582.702C989.339 623.587 1003.99 667.968 1011.69 735.188V735.165ZM756.236 459.017C912.268 459.017 1040.6 586.107 1040.6 741.93C1040.6 897.752 912.302 1024.84 756.236 1024.84C600.169 1024.84 472.981 897.764 472.981 741.93C472.981 586.096 600.249 459.017 756.282 459.017" fill="#FFFF00"/>
<path d="M756.236 459.017C912.268 459.017 1040.6 586.107 1040.6 741.93C1040.6 897.752 912.302 1024.84 756.236 1024.84C600.169 1024.84 472.981 897.764 472.981 741.93C472.981 586.096 600.249 459.017 756.282 459.017M1011.69 735.165C1012.09 815.811 970.85 888.179 937.641 920.109C890.675 965.282 828.347 994.334 755.594 995.676C674.342 997.166 597.741 944.163 577.19 920.866C537.016 875.338 504.312 817.519 503.258 739.602C508.241 651.573 542.755 590.269 592.803 548.215C642.852 506.161 709.487 485.696 764.976 487.163C829.011 488.849 903.802 520.309 955.477 582.702C989.339 623.587 1003.99 667.968 1011.69 735.188V735.165Z" stroke="black" stroke-width="0.57" stroke-linecap="round" stroke-linejoin="round"/>
<path fill-rule="evenodd" clip-rule="evenodd" d="M756.797 458.12C913.112 458.12 1040.6 585.617 1040.6 741.936C1040.6 898.254 913.112 1025.74 756.797 1025.74C600.482 1025.74 472.981 898.243 472.981 741.936C472.981 585.628 600.471 458.12 756.797 458.12ZM479.23 741.936C479.23 894.586 604.587 1019.49 756.797 1019.49C909.007 1019.49 1034.36 894.528 1034.36 741.936C1034.36 589.343 908.996 464.368 756.797 464.368C604.599 464.368 479.23 589.286 479.23 741.936Z" fill="#FFFF00" stroke="black" stroke-width="0.57" stroke-linecap="round" stroke-linejoin="round"/>
<path fill-rule="evenodd" clip-rule="evenodd" d="M757.257 481.435C899.835 481.435 1017.29 598.476 1017.29 741.493C1017.29 884.51 899.812 1001.53 757.257 1001.53C614.701 1001.53 497.192 884.51 497.192 741.447C497.192 598.385 614.643 481.446 757.257 481.446V481.435ZM503.443 741.447C503.443 881.035 618.072 995.244 757.234 995.244C896.395 995.244 1011.01 881.069 1011.01 741.447C1011.01 601.825 896.395 487.685 757.257 487.685C618.118 487.685 503.443 601.905 503.443 741.447Z" fill="#FFFF00" stroke="black" stroke-width="0.57" stroke-linecap="round" stroke-linejoin="round"/>
<path fill-rule="evenodd" clip-rule="evenodd" d="M768.863 457.224H744.686V1026.64H768.897L768.863 457.224Z" fill="#FFFF00" stroke="black" stroke-width="0.57" stroke-linecap="round" stroke-linejoin="round"/>
<path fill-rule="evenodd" clip-rule="evenodd" d="M766.271 453.637H772.483V1030.21H766.259V453.637H766.271ZM741.995 453.637H748.266V1030.22H741.995V453.648V453.637Z" fill="#FFFF00" stroke="black" stroke-width="0.57" stroke-linecap="round" stroke-linejoin="round"/>
<path fill-rule="evenodd" clip-rule="evenodd" d="M1040.6 753.139V731.834L1023.41 715.673L926.019 689.606L785.692 675.125L616.685 683.814L496.375 712.777L472.084 730.965V752.27L533.614 724.362L679.705 701.191H820.066L923.189 712.777L994.802 730.154L1040.6 753.139Z" fill="#FFFF00" stroke="black" stroke-width="0.57" stroke-linecap="round" stroke-linejoin="round"/>
<path fill-rule="evenodd" clip-rule="evenodd" d="M756.946 697.651C823.999 697.525 889.057 703.982 940.66 714.012C993.904 724.637 1031.38 737.929 1044.19 752.859V760.255C1028.74 741.673 978.316 728.06 939.467 720.274C888.266 710.325 823.621 703.902 756.969 704.028C686.601 704.165 621.085 710.817 570.628 720.641C530.139 728.655 476.139 744.592 469.395 760.312V752.607C473.099 741.73 513.301 725.484 569.711 714.206C620.545 704.314 686.188 697.777 756.969 697.639L756.946 697.651ZM756.946 673.333C823.999 673.218 889.046 679.687 940.649 689.705C993.892 700.341 1031.36 713.622 1044.19 728.552V735.948C1028.74 717.378 978.316 703.753 939.479 695.968C888.266 686.018 823.632 679.607 756.969 679.733C686.601 679.859 621.406 686.511 570.938 696.334C531.871 703.73 475.669 720.286 469.395 736.006V728.3C473.099 717.549 514.127 700.708 569.711 689.9C620.603 680.007 686.199 673.47 756.981 673.344L756.946 673.333Z" fill="#FFFF00" stroke="black" stroke-width="0.57" stroke-linecap="round" stroke-linejoin="round"/>
<path fill-rule="evenodd" clip-rule="evenodd" d="M755.899 549.598C861.449 549.075 953.525 564.241 995.645 585.648L1011.01 612.024C974.344 592.447 875.073 572.097 756.048 575.132C659.08 575.723 555.466 585.728 503.47 613.252L521.802 582.818C564.472 560.853 665.095 549.723 755.888 549.609" fill="#FFFF00"/>
<path d="M755.899 549.598C861.449 549.075 953.525 564.241 995.645 585.648L1011.01 612.024C974.344 592.447 875.073 572.097 756.048 575.132C659.08 575.723 555.466 585.728 503.47 613.252L521.802 582.818C564.472 560.853 665.095 549.723 755.888 549.609" stroke="black" stroke-width="0.57" stroke-linecap="round" stroke-linejoin="round"/>
<path fill-rule="evenodd" clip-rule="evenodd" d="M757.148 571.341C817.341 571.18 875.507 574.591 921.769 582.991C964.846 591.058 1005.93 603.158 1011.81 609.668L1016.39 617.735C1002.1 608.343 966.553 597.903 920.898 589.191C875.071 580.525 816.929 577.667 757.068 577.806C689.13 577.575 636.337 581.182 591.038 589.133C543.126 598.145 509.89 611.028 501.676 617.147L506.132 608.597C522.069 600.415 547.376 590.562 589.835 582.865C636.681 574.256 690.035 571.675 757.171 571.341H757.148ZM757.148 546.9C814.764 546.75 871.634 549.976 915.972 557.997C950.949 564.842 985.525 575.524 998.185 585.043L1004.85 595.69C993.522 583.014 950.903 571.03 913.268 564.312C869.274 556.672 814.741 553.652 757.148 553.168C696.691 553.341 640.817 557.063 597.465 565.003C556.106 572.92 529.412 582.288 518.116 589.617L523.982 580.721C539.552 572.47 564.756 564.945 596.411 558.7C640.095 550.702 696.302 547.072 757.114 546.9H757.148Z" fill="#FFFF00" stroke="black" stroke-width="0.57" stroke-linecap="round" stroke-linejoin="round"/>
<path fill-rule="evenodd" clip-rule="evenodd" d="M898.389 859.773C846.17 849.968 793.849 848.538 757.351 848.976C581.329 851.052 524.455 885.335 517.518 895.716L504.366 874.146C549.177 841.467 645.037 823.138 758.303 825.006C817.126 825.975 867.876 829.909 910.577 838.225L898.434 859.773" fill="#FFFF00"/>
<path d="M898.389 859.773C846.17 849.968 793.849 848.538 757.351 848.976C581.329 851.052 524.455 885.335 517.518 895.716L504.366 874.146C549.177 841.467 645.037 823.138 758.303 825.006C817.126 825.975 867.876 829.909 910.577 838.225L898.434 859.773" stroke="black" stroke-width="0.57" stroke-linecap="round" stroke-linejoin="round"/>
<path fill-rule="evenodd" clip-rule="evenodd" d="M756.146 846.034C805.092 846.771 853.143 848.797 899.521 857.549L896.163 863.502C853.097 855.51 807.178 852.459 756.318 852.701C691.371 852.194 625.644 858.285 568.492 874.774C550.449 879.818 520.578 891.47 517.529 901.097L514.193 895.57C515.156 889.881 533.21 878.067 566.921 868.533C632.43 849.696 693.698 846.518 756.112 846.092L756.146 846.034ZM758.37 821.289C809.081 822.245 861.465 824.594 912.371 834.727L908.932 840.921C862.955 831.71 819.03 828.704 758.771 827.772C693.618 827.887 624.509 832.55 561.671 850.905C541.394 856.846 506.375 869.673 505.206 879.841L501.676 873.888C502.432 864.676 532.74 852.62 560.009 844.652C623.329 826.16 692.62 821.404 758.313 821.289H758.37Z" fill="#FFFF00" stroke="black" stroke-width="0.55" stroke-linecap="round" stroke-linejoin="round"/>
<path fill-rule="evenodd" clip-rule="evenodd" d="M1008.07 877.254L986.881 910.064L926.178 856.103L768.692 750.062L591.163 652.619L498.985 621.093L518.628 584.638L525.305 580.97L582.573 595.3L771.555 692.743L880.364 761.526L971.992 827.443L1009.22 870.433L1008.07 877.254Z" fill="#FFFF00" stroke="black" stroke-width="0.57" stroke-linecap="round" stroke-linejoin="round"/>
<path fill-rule="evenodd" clip-rule="evenodd" d="M495.375 622.094C511.551 611.137 630.381 664.042 754.722 738.975C878.73 814.113 997.229 899.029 986.54 914.92L983.024 920.45L981.408 921.721C981.752 921.48 983.539 919.305 981.236 913.409C975.944 896.029 891.882 828.997 752.419 744.836C616.451 663.813 503.142 614.972 491.812 628.94L495.387 622.071L495.375 622.094ZM1012.14 876.578C1022.37 856.394 912.158 773.413 775.491 692.618C635.731 613.438 534.92 566.819 516.591 580.717L512.513 588.159C512.513 588.571 512.662 587.655 513.521 587.014C516.866 584.095 522.411 584.29 524.92 584.244C556.526 584.747 647.026 626.364 774.036 699.121C829.677 731.51 1009.09 846.502 1008.4 878.868C1008.4 881.65 1008.63 882.222 1007.58 883.596L1012.17 876.658L1012.14 876.578Z" fill="#FFFF00" stroke="black" stroke-width="0.57" stroke-linecap="round" stroke-linejoin="round"/>
<path d="M586.898 773.194C586.911 795.45 591.345 817.481 599.944 838.013C608.543 858.545 621.135 877.17 636.992 892.81C667.985 923.688 710.204 943.242 756.969 943.242C802.139 943.233 845.463 925.346 877.449 893.5C909.435 861.654 927.475 818.446 927.614 773.343V773.343V546.399L586.863 545.998V773.16L586.898 773.194Z" fill="white" stroke="black" stroke-width="0.67"/>
<path d="M593.141 773.272V773.398C593.188 794.757 597.46 815.894 605.71 835.59C613.961 855.287 626.027 873.151 641.211 888.154C663.953 910.972 692.936 926.535 724.503 932.878C756.069 939.221 788.806 936.061 818.581 923.796C848.356 911.531 873.835 890.711 891.804 863.963C909.772 837.215 919.425 805.737 919.544 773.502V773.502V553.172H593.347L593.152 773.353M853.95 619.076V759.341L853.835 774.179C853.832 778.236 853.602 782.289 853.147 786.32C850.521 807.796 840.67 827.737 825.215 842.86C806.935 861.135 782.153 871.392 756.32 871.376C729.591 871.376 705.774 860.085 688.031 842.401C669.745 824.217 659.411 799.512 659.297 773.708V618.72L853.972 619.076H853.95Z" fill="#FF0000"/>
<path d="M593.141 773.272V773.398C593.188 794.757 597.46 815.894 605.71 835.59C613.961 855.287 626.027 873.151 641.211 888.154C663.953 910.972 692.936 926.535 724.503 932.878C756.069 939.221 788.806 936.061 818.581 923.796C848.356 911.531 873.835 890.711 891.804 863.963C909.772 837.215 919.425 805.737 919.544 773.502V773.502V553.172H593.347L593.152 773.353M853.95 619.076V759.341L853.835 774.179C853.832 778.236 853.602 782.289 853.147 786.32C850.521 807.796 840.67 827.737 825.215 842.86C806.935 861.135 782.153 871.392 756.32 871.376C729.591 871.376 705.774 860.085 688.031 842.401C669.745 824.217 659.411 799.512 659.297 773.708V618.72L853.972 619.076H853.95Z" stroke="black" stroke-width="0.51"/>
<path d="M614.502 610.884C614.88 595.065 626.114 591.317 626.194 591.271C626.274 591.225 638.311 595.306 638.276 611.033L614.502 610.896" fill="#FFFF00"/>
<path d="M604.782 591.58L602.833 609.761H614.697C614.812 594.721 626.091 592.211 626.355 592.268C626.619 592.325 637.818 595.592 638.093 609.761H649.98L647.837 591.42L604.793 591.523L604.782 591.58Z" fill="#FFFF00" stroke="black" stroke-width="0.5"/>
<path d="M602.065 609.83H650.634C651.146 609.941 651.605 610.223 651.934 610.631C652.263 611.039 652.443 611.547 652.443 612.071C652.443 612.595 652.263 613.103 651.934 613.511C651.605 613.919 651.146 614.202 650.634 614.312H602.065C601.553 614.202 601.094 613.919 600.765 613.511C600.435 613.103 600.256 612.595 600.256 612.071C600.256 611.547 600.435 611.039 600.765 610.631C601.094 610.223 601.553 609.941 602.065 609.83Z" fill="#FFFF00" stroke="black" stroke-width="0.5"/>
<path d="M619.683 609.737C619.74 600.246 626.171 597.563 626.205 597.563C626.239 597.563 632.911 600.338 632.968 609.737H619.683Z" fill="#FFFF00" stroke="black" stroke-width="0.5"/>
<path d="M603.098 584.015H649.649C650.147 584.068 650.608 584.303 650.942 584.676C651.277 585.048 651.463 585.531 651.463 586.032C651.463 586.533 651.277 587.016 650.942 587.389C650.608 587.761 650.147 587.996 649.649 588.05H603.098C602.6 587.996 602.139 587.761 601.804 587.389C601.469 587.016 601.284 586.533 601.284 586.032C601.284 585.531 601.469 585.048 601.804 584.676C602.139 584.303 602.6 584.068 603.098 584.015V584.015Z" fill="#FFFF00" stroke="black" stroke-width="0.5"/>
<path d="M604.071 588.084H648.594C649.076 588.157 649.517 588.401 649.835 588.771C650.154 589.141 650.329 589.613 650.329 590.101C650.329 590.59 650.154 591.062 649.835 591.432C649.517 591.802 649.076 592.046 648.594 592.119H604.071C603.589 592.046 603.148 591.802 602.829 591.432C602.511 591.062 602.336 590.59 602.336 590.101C602.336 589.613 602.511 589.141 602.829 588.771C603.148 588.401 603.589 588.157 604.071 588.084V588.084Z" fill="#FFFF00" stroke="black" stroke-width="0.5"/>
<path d="M618.458 557.73H621.977V560.218H624.545V557.673H628.144V560.206H630.723V557.662H634.323V563.393C634.323 563.596 634.282 563.796 634.202 563.983C634.122 564.169 634.005 564.337 633.858 564.476C633.711 564.616 633.537 564.724 633.347 564.794C633.157 564.864 632.955 564.894 632.752 564.883H620.143C619.728 564.89 619.326 564.737 619.021 564.455C618.715 564.173 618.53 563.785 618.504 563.37V557.639L618.458 557.73Z" fill="#FFFF00" stroke="black" stroke-width="0.5"/>
<path d="M631.696 565.445L632.487 583.923H620.152L620.966 565.434L631.684 565.491" fill="#FFFF00"/>
<path d="M631.696 565.445L632.487 583.923H620.152L620.966 565.434L631.684 565.491" stroke="black" stroke-width="0.5"/>
<path d="M616.646 574.009L617.024 583.97H605.194L605.538 573.997L616.646 574.009Z" fill="#FFFF00" stroke="black" stroke-width="0.5"/>
<path d="M647.046 574.009L647.424 583.97H635.605L635.938 573.997L647.046 574.009Z" fill="#FFFF00" stroke="black" stroke-width="0.5"/>
<path d="M603.348 566.787H606.787V569.286H609.297V566.73H612.805V569.274H615.315V566.718H618.846V572.45C618.847 572.65 618.808 572.848 618.731 573.033C618.654 573.217 618.54 573.384 618.397 573.524C618.253 573.663 618.083 573.772 617.896 573.843C617.709 573.915 617.509 573.948 617.31 573.94H604.952C604.542 573.941 604.147 573.784 603.849 573.503C603.55 573.221 603.371 572.836 603.348 572.427V566.695V566.787Z" fill="#FFFF00" stroke="black" stroke-width="0.5"/>
<path d="M633.75 566.787H637.189V569.286H639.699V566.73H643.23V569.274H645.752V566.718H649.271V572.45C649.273 572.65 649.234 572.848 649.157 573.033C649.079 573.217 648.966 573.384 648.822 573.524C648.678 573.663 648.508 573.772 648.321 573.843C648.134 573.915 647.935 573.948 647.735 573.94H635.355C634.946 573.94 634.552 573.784 634.256 573.502C633.959 573.22 633.782 572.835 633.761 572.427V566.695L633.75 566.787Z" fill="#FFFF00" stroke="black" stroke-width="0.5"/>
<path d="M625.129 571.291C625.112 571.118 625.132 570.943 625.187 570.777C625.242 570.612 625.331 570.46 625.448 570.331C625.565 570.202 625.708 570.099 625.867 570.029C626.026 569.958 626.198 569.922 626.373 569.922C626.547 569.922 626.719 569.958 626.878 570.029C627.037 570.099 627.18 570.202 627.297 570.331C627.414 570.46 627.503 570.612 627.558 570.777C627.613 570.943 627.633 571.118 627.616 571.291V575.693H625.129V571.291Z" fill="black"/>
<path d="M609.86 577.677C609.86 577.364 609.985 577.063 610.206 576.842C610.428 576.62 610.728 576.496 611.041 576.496C611.354 576.496 611.655 576.62 611.876 576.842C612.097 577.063 612.222 577.364 612.222 577.677V581.116H609.86V577.677Z" fill="black"/>
<path d="M640.315 577.677C640.315 577.364 640.44 577.063 640.661 576.842C640.883 576.62 641.183 576.496 641.496 576.496C641.809 576.496 642.11 576.62 642.331 576.842C642.552 577.063 642.677 577.364 642.677 577.677V581.116H640.315V577.677Z" fill="black"/>
<path d="M614.502 743.625C614.88 727.806 626.114 724.058 626.194 724.012C626.274 723.966 638.311 728.036 638.276 743.774L614.502 743.625Z" fill="#FFFF00"/>
<path d="M604.782 724.287L602.833 742.478H614.697C614.812 727.439 626.091 724.929 626.355 724.986C626.619 725.043 637.818 728.31 638.093 742.478H649.98L647.837 724.138L604.782 724.287Z" fill="#FFFF00" stroke="black" stroke-width="0.5"/>
<path d="M602.065 742.629H650.634C651.146 742.739 651.605 743.022 651.934 743.43C652.263 743.838 652.443 744.346 652.443 744.87C652.443 745.394 652.263 745.902 651.934 746.31C651.605 746.718 651.146 747 650.634 747.111H602.065C601.553 747 601.094 746.718 600.765 746.31C600.435 745.902 600.256 745.394 600.256 744.87C600.256 744.346 600.435 743.838 600.765 743.43C601.094 743.022 601.553 742.739 602.065 742.629Z" fill="#FFFF00" stroke="black" stroke-width="0.5"/>
<path d="M619.682 742.479C619.739 732.988 626.17 730.306 626.204 730.306C626.238 730.306 632.91 733.08 632.967 742.479H619.682Z" fill="#FFFF00" stroke="black" stroke-width="0.5"/>
<path d="M603.094 716.745H649.646C650.137 716.809 650.588 717.05 650.915 717.422C651.242 717.795 651.422 718.273 651.422 718.768C651.422 719.264 651.242 719.742 650.915 720.114C650.588 720.487 650.137 720.727 649.646 720.792H603.094C602.603 720.727 602.152 720.487 601.825 720.114C601.499 719.742 601.318 719.264 601.318 718.768C601.318 718.273 601.499 717.795 601.825 717.422C602.152 717.05 602.603 716.809 603.094 716.745V716.745Z" fill="#FFFF00" stroke="black" stroke-width="0.5"/>
<path d="M604.07 720.849H648.593C649.071 720.929 649.505 721.177 649.818 721.547C650.131 721.918 650.303 722.387 650.303 722.872C650.303 723.357 650.131 723.826 649.818 724.196C649.505 724.567 649.071 724.814 648.593 724.895H604.07C603.592 724.814 603.158 724.567 602.845 724.196C602.532 723.826 602.36 723.357 602.36 722.872C602.36 722.387 602.532 721.918 602.845 721.547C603.158 721.177 603.592 720.929 604.07 720.849V720.849Z" fill="#FFFF00" stroke="black" stroke-width="0.5"/>
<path d="M618.458 690.472H621.977V692.971H624.545V690.426H628.144V692.959H630.723V690.415H634.323V696.146C634.323 696.349 634.282 696.549 634.202 696.735C634.122 696.922 634.005 697.09 633.858 697.229C633.711 697.369 633.537 697.477 633.347 697.547C633.157 697.617 632.955 697.647 632.752 697.636H620.143C619.728 697.643 619.326 697.49 619.021 697.208C618.715 696.926 618.53 696.538 618.504 696.123V690.392L618.458 690.472Z" fill="#FFFF00" stroke="black" stroke-width="0.5"/>
<path d="M631.696 698.174L632.487 716.664H620.152L620.966 698.174H631.684" fill="#FFFF00"/>
<path d="M631.696 698.174L632.487 716.664H620.152L620.966 698.174H631.684" stroke="black" stroke-width="0.5"/>
<path d="M616.646 706.749L617.024 716.71H605.194L605.538 706.737L616.646 706.749Z" fill="#FFFF00" stroke="black" stroke-width="0.5"/>
<path d="M647.045 706.749L647.423 716.71H635.604L635.937 706.737L647.045 706.749Z" fill="#FFFF00" stroke="black" stroke-width="0.5"/>
<path d="M603.348 699.528H606.787V702.027H609.297V699.471H612.805V702.016H615.315V699.459H618.846V705.191C618.847 705.391 618.808 705.589 618.731 705.774C618.654 705.959 618.54 706.126 618.397 706.265C618.253 706.404 618.083 706.513 617.896 706.584C617.709 706.656 617.509 706.689 617.31 706.681H604.952C604.542 706.682 604.147 706.525 603.849 706.244C603.55 705.963 603.371 705.578 603.348 705.168V699.437V699.528Z" fill="#FFFF00" stroke="black" stroke-width="0.5"/>
<path d="M633.749 699.528H637.188V702.027H639.698V699.471H643.229V702.016H645.751V699.459H649.27V705.191C649.272 705.391 649.233 705.589 649.156 705.774C649.078 705.959 648.965 706.126 648.821 706.265C648.677 706.404 648.507 706.513 648.32 706.584C648.133 706.656 647.934 706.689 647.734 706.681H635.354C634.945 706.682 634.551 706.525 634.255 706.243C633.958 705.961 633.781 705.577 633.76 705.168V699.437L633.749 699.528Z" fill="#FFFF00" stroke="black" stroke-width="0.5"/>
<path d="M625.129 704.02C625.112 703.847 625.132 703.672 625.187 703.507C625.242 703.342 625.331 703.19 625.448 703.061C625.565 702.932 625.708 702.829 625.867 702.758C626.026 702.688 626.198 702.651 626.373 702.651C626.547 702.651 626.719 702.688 626.878 702.758C627.037 702.829 627.18 702.932 627.297 703.061C627.414 703.19 627.503 703.342 627.558 703.507C627.613 703.672 627.633 703.847 627.616 704.02V708.434H625.129V704.032" fill="black"/>
<path d="M609.86 710.416C609.86 710.103 609.985 709.803 610.206 709.581C610.428 709.36 610.728 709.235 611.041 709.235C611.354 709.235 611.655 709.36 611.876 709.581C612.097 709.803 612.222 710.103 612.222 710.416V713.855H609.86V710.416Z" fill="black"/>
<path d="M640.315 710.416C640.315 710.103 640.44 709.803 640.661 709.581C640.883 709.36 641.183 709.235 641.496 709.235C641.809 709.235 642.11 709.36 642.331 709.581C642.552 709.803 642.677 710.103 642.677 710.416V713.855H640.315V710.416Z" fill="black"/>
<path d="M666.258 881.801C655.299 870.338 660.526 859.769 660.526 859.677C660.526 859.586 671.989 853.946 683.074 865.031L666.212 881.801" fill="#FFFF00"/>
<path d="M645.728 875.059L657.191 889.262L665.57 880.859C654.979 870.176 661.146 860.409 661.375 860.226C661.604 860.042 671.795 854.494 682.008 864.226L690.388 855.79L675.876 844.396L645.613 875.025L645.728 875.059Z" fill="#FFFF00" stroke="black" stroke-width="0.5"/>
<path d="M656.744 889.881L690.961 855.412C691.4 855.127 691.925 855.001 692.446 855.055C692.967 855.11 693.454 855.342 693.826 855.711C694.197 856.081 694.43 856.568 694.487 857.089C694.543 857.61 694.419 858.135 694.136 858.575L659.919 893.033C659.48 893.314 658.958 893.436 658.44 893.381C657.922 893.326 657.439 893.095 657.069 892.728C656.699 892.361 656.466 891.879 656.406 891.362C656.347 890.844 656.466 890.322 656.744 889.881Z" fill="#FFFF00" stroke="black" stroke-width="0.5"/>
<path d="M669.112 877.294C662.417 870.565 665.042 864.111 665.065 864.088C665.088 864.065 671.759 861.28 678.477 867.86L669.112 877.294" fill="#FFFF00"/>
<path d="M669.112 877.294C662.417 870.565 665.042 864.111 665.065 864.088C665.088 864.065 671.759 861.28 678.477 867.86L669.112 877.294" stroke="black" stroke-width="0.5"/>
<path d="M639.17 871.013L671.965 837.977C672.353 837.658 672.846 837.495 673.348 837.519C673.849 837.543 674.324 837.751 674.681 838.105C675.037 838.459 675.25 838.932 675.278 839.433C675.305 839.935 675.146 840.429 674.831 840.82L642.035 873.856C641.647 874.174 641.154 874.337 640.653 874.314C640.151 874.29 639.676 874.081 639.32 873.728C638.963 873.374 638.751 872.901 638.723 872.399C638.695 871.898 638.854 871.404 639.17 871.013V871.013Z" fill="#FFFF00" stroke="black" stroke-width="0.5"/>
<path d="M642.713 873.122L674.099 841.53C674.491 841.245 674.972 841.11 675.455 841.148C675.939 841.186 676.392 841.394 676.736 841.736C677.079 842.078 677.29 842.532 677.33 843.015C677.369 843.498 677.236 843.979 676.953 844.373L645.579 875.976C645.184 876.256 644.703 876.388 644.221 876.348C643.738 876.308 643.286 876.099 642.943 875.757C642.6 875.415 642.389 874.964 642.347 874.481C642.305 873.999 642.434 873.518 642.713 873.122V873.122Z" fill="#FFFF00" stroke="black" stroke-width="0.5"/>
<path d="M631.318 841.53L633.806 839.042L635.571 840.807L637.382 838.985L635.571 837.185L638.116 834.64L639.916 836.429L641.727 834.606L639.916 832.806L642.46 830.25L646.541 834.319C646.688 834.458 646.806 834.625 646.886 834.81C646.966 834.995 647.007 835.195 647.007 835.397C647.007 835.599 646.966 835.799 646.886 835.984C646.806 836.169 646.688 836.336 646.541 836.474L637.634 845.45C637.348 845.749 636.957 845.926 636.543 845.945C636.129 845.965 635.724 845.824 635.411 845.553L631.364 841.541L631.318 841.53Z" fill="#FFFF00" stroke="black" stroke-width="0.5"/>
<path d="M646.119 837.575L659.806 850.035L651.094 858.759L638.542 845.141L646.13 837.575" fill="#FFFF00"/>
<path d="M646.119 837.575L659.806 850.035L651.094 858.759L638.542 845.141L646.13 837.575" stroke="black" stroke-width="0.5"/>
<path d="M641.601 854.288L648.937 861.04L640.603 869.431L633.726 862.175L641.555 854.288H641.601Z" fill="#FFFF00" stroke="black" stroke-width="0.5"/>
<path d="M663.026 832.714L670.363 839.466L662.029 847.856L655.151 840.6L662.992 832.714H663.026Z" fill="#FFFF00" stroke="black" stroke-width="0.5"/>
<path d="M627.101 858.633L629.531 856.202L631.308 857.956L633.073 856.18L631.262 854.38L633.749 851.881L635.56 853.681L637.337 851.892L635.526 850.093L638.013 847.594L642.094 851.652C642.238 851.791 642.352 851.957 642.431 852.141C642.509 852.325 642.549 852.523 642.549 852.723C642.549 852.923 642.509 853.121 642.431 853.306C642.352 853.49 642.238 853.656 642.094 853.795L633.371 862.576C633.085 862.868 632.698 863.038 632.29 863.051C631.882 863.063 631.485 862.918 631.181 862.645L627.123 858.633H627.101Z" fill="#FFFF00" stroke="black" stroke-width="0.5"/>
<path d="M648.524 837.059L650.955 834.629L652.731 836.383L654.497 834.606L652.685 832.807L655.173 830.308L656.984 832.107L658.761 830.319L656.938 828.519L659.437 826.021L663.518 830.078C663.662 830.217 663.776 830.384 663.854 830.568C663.933 830.752 663.973 830.95 663.973 831.15C663.973 831.35 663.933 831.548 663.854 831.732C663.776 831.916 663.662 832.083 663.518 832.222L654.795 841.003C654.506 841.293 654.117 841.461 653.708 841.474C653.299 841.487 652.9 841.343 652.594 841.071L648.547 837.059H648.524Z" fill="#FFFF00" stroke="black" stroke-width="0.5"/>
<path d="M645.648 846.346C645.522 846.234 645.42 846.098 645.349 845.945C645.278 845.793 645.238 845.627 645.233 845.459C645.228 845.291 645.257 845.123 645.319 844.967C645.38 844.81 645.474 844.667 645.592 844.548C645.711 844.429 645.853 844.335 646.009 844.272C646.165 844.209 646.332 844.179 646.501 844.183C646.669 844.187 646.835 844.225 646.988 844.296C647.141 844.366 647.278 844.467 647.39 844.592L650.52 847.687L648.766 849.452L645.648 846.346Z" fill="black"/>
<path d="M639.411 861.694C639.301 861.584 639.213 861.454 639.152 861.31C639.092 861.166 639.061 861.012 639.061 860.856C639.06 860.7 639.09 860.545 639.149 860.401C639.209 860.257 639.296 860.125 639.405 860.015C639.515 859.904 639.646 859.816 639.79 859.756C639.934 859.696 640.088 859.665 640.244 859.664C640.4 859.664 640.554 859.694 640.699 859.753C640.843 859.812 640.974 859.899 641.085 860.009L643.492 862.405L641.83 864.136L639.411 861.74" fill="black"/>
<path d="M660.951 840.063C660.84 839.954 660.752 839.824 660.692 839.681C660.631 839.538 660.6 839.384 660.599 839.229C660.597 838.915 660.719 838.613 660.94 838.389C661.16 838.166 661.46 838.039 661.774 838.037C662.088 838.035 662.39 838.158 662.613 838.378L665.032 840.785L663.358 842.459L660.951 840.063Z" fill="black"/>
<path d="M745.5 610.884C745.89 595.065 757.112 591.316 757.238 591.316C757.364 591.316 769.366 595.351 769.32 611.079L745.546 610.941" fill="#FFFF00"/>
<path d="M735.814 591.579L733.865 609.76H745.729C745.844 594.72 757.112 592.21 757.387 592.267C757.662 592.325 768.85 595.591 769.114 609.76H781.013L778.869 591.419L735.814 591.522V591.579Z" fill="#FFFF00" stroke="black" stroke-width="0.5"/>
<path d="M733.064 609.829H781.621C782.133 609.94 782.592 610.222 782.921 610.63C783.251 611.038 783.43 611.546 783.43 612.07C783.43 612.594 783.251 613.102 782.921 613.51C782.592 613.918 782.133 614.201 781.621 614.311H733.064C732.552 614.201 732.093 613.918 731.764 613.51C731.434 613.102 731.255 612.594 731.255 612.07C731.255 611.546 731.434 611.038 731.764 610.63C732.093 610.222 732.552 609.94 733.064 609.829Z" fill="#FFFF00" stroke="black" stroke-width="0.5"/>
<path d="M750.717 609.736C750.774 600.245 757.193 597.562 757.228 597.562C757.262 597.562 763.945 600.337 764.002 609.736H750.717Z" fill="#FFFF00" stroke="black" stroke-width="0.5"/>
<path d="M734.097 584.014H780.648C781.146 584.067 781.607 584.302 781.942 584.675C782.276 585.047 782.462 585.53 782.462 586.031C782.462 586.532 782.276 587.015 781.942 587.388C781.607 587.76 781.146 587.995 780.648 588.049H734.097C733.599 587.995 733.138 587.76 732.803 587.388C732.468 587.015 732.283 586.532 732.283 586.031C732.283 585.53 732.468 585.047 732.803 584.675C733.138 584.302 733.599 584.067 734.097 584.014Z" fill="#FFFF00" stroke="black" stroke-width="0.5"/>
<path d="M735.069 588.083H779.592C780.074 588.156 780.515 588.4 780.834 588.77C781.152 589.14 781.327 589.612 781.327 590.101C781.327 590.589 781.152 591.061 780.834 591.431C780.515 591.801 780.074 592.045 779.592 592.118H735.069C734.587 592.045 734.146 591.801 733.828 591.431C733.509 591.061 733.334 590.589 733.334 590.101C733.334 589.612 733.509 589.14 733.828 588.77C734.146 588.4 734.587 588.156 735.069 588.083V588.083Z" fill="#FFFF00" stroke="black" stroke-width="0.5"/>
<path d="M749.455 557.729H752.974V560.217H755.53V557.672H759.141V560.205H761.709V557.661H765.262V563.392C765.261 563.594 765.219 563.794 765.138 563.98C765.058 564.165 764.941 564.332 764.794 564.472C764.648 564.611 764.474 564.719 764.285 564.789C764.095 564.86 763.894 564.892 763.692 564.882H751.083C750.668 564.886 750.268 564.732 749.963 564.451C749.658 564.17 749.473 563.783 749.443 563.369V557.638L749.455 557.729Z" fill="#FFFF00" stroke="black" stroke-width="0.5"/>
<path d="M762.695 565.444L763.486 583.922H751.151L751.977 565.433L762.695 565.49" fill="#FFFF00"/>
<path d="M762.695 565.444L763.486 583.922H751.151L751.977 565.433L762.695 565.49" stroke="black" stroke-width="0.5"/>
<path d="M747.645 574.008L748.023 583.969H736.205L736.537 573.996H747.645V574.008Z" fill="#FFFF00" stroke="black" stroke-width="0.5"/>
<path d="M778.055 574.008L778.433 583.969H766.604L766.936 573.996L778.055 574.008Z" fill="#FFFF00" stroke="black" stroke-width="0.5"/>
<path d="M734.312 566.786H737.751V569.285H740.273V566.729H743.792V569.274H746.314V566.717H749.833V572.449C749.835 572.649 749.796 572.847 749.719 573.032C749.642 573.216 749.528 573.383 749.384 573.523C749.241 573.662 749.07 573.771 748.884 573.842C748.697 573.914 748.497 573.947 748.297 573.939H735.963C735.552 573.942 735.156 573.787 734.857 573.505C734.558 573.223 734.379 572.836 734.358 572.426V566.694L734.312 566.786Z" fill="#FFFF00" stroke="black" stroke-width="0.5"/>
<path d="M764.76 566.786H768.199V569.285H770.709V566.729H774.228V569.274H776.727V566.717H780.258V572.449C780.259 572.649 780.221 572.847 780.143 573.032C780.066 573.216 779.952 573.383 779.809 573.523C779.665 573.662 779.495 573.771 779.308 573.842C779.121 573.914 778.922 573.947 778.722 573.939H766.41C766 573.94 765.605 573.783 765.307 573.502C765.008 573.22 764.829 572.835 764.806 572.426V566.694L764.76 566.786Z" fill="#FFFF00" stroke="black" stroke-width="0.5"/>
<path d="M756.095 571.29C756.078 571.117 756.098 570.942 756.153 570.776C756.208 570.611 756.296 570.459 756.414 570.33C756.531 570.201 756.673 570.098 756.833 570.028C756.992 569.957 757.164 569.921 757.338 569.921C757.513 569.921 757.685 569.957 757.844 570.028C758.003 570.098 758.146 570.201 758.263 570.33C758.38 570.459 758.469 570.611 758.524 570.776C758.579 570.942 758.599 571.117 758.582 571.29V575.692H756.095V571.29Z" fill="black"/>
<path d="M740.859 577.675C740.859 577.36 740.984 577.058 741.207 576.836C741.429 576.613 741.731 576.488 742.046 576.488C742.36 576.488 742.662 576.613 742.885 576.836C743.107 577.058 743.232 577.36 743.232 577.675V581.114H740.859V577.675Z" fill="black"/>
<path d="M771.351 577.675C771.351 577.36 771.476 577.058 771.698 576.836C771.921 576.613 772.222 576.488 772.537 576.488C772.852 576.488 773.153 576.613 773.376 576.836C773.598 577.058 773.723 577.36 773.723 577.675V581.114H771.351V577.675Z" fill="black"/>
<path d="M899.379 610.884C899.001 595.065 887.767 591.317 887.687 591.271C887.606 591.225 875.559 595.306 875.605 611.033L899.379 610.896" fill="#FFFF00"/>
<path d="M909.065 591.58L911.025 609.761H899.161C899.047 594.721 887.767 592.211 887.492 592.268C887.217 592.325 876.029 595.592 875.765 609.761H863.844L865.999 591.42L909.042 591.523L909.065 591.58Z" fill="#FFFF00" stroke="black" stroke-width="0.5"/>
<path d="M911.816 609.83H863.259C862.747 609.941 862.288 610.223 861.959 610.631C861.63 611.039 861.45 611.547 861.45 612.071C861.45 612.595 861.63 613.103 861.959 613.511C862.288 613.919 862.747 614.202 863.259 614.312H911.816C912.329 614.202 912.788 613.919 913.117 613.511C913.446 613.103 913.625 612.595 913.625 612.071C913.625 611.547 913.446 611.039 913.117 610.631C912.788 610.223 912.329 609.941 911.816 609.83Z" fill="#FFFF00" stroke="black" stroke-width="0.5"/>
<path d="M894.165 609.737C894.165 600.246 887.688 597.563 887.654 597.563C887.619 597.563 880.948 600.338 880.891 609.737H894.165" fill="#FFFF00"/>
<path d="M894.165 609.737C894.165 600.246 887.688 597.563 887.654 597.563C887.619 597.563 880.948 600.338 880.891 609.737H894.165" stroke="black" stroke-width="0.5"/>
<path d="M910.842 584.015H864.234C863.736 584.068 863.275 584.303 862.94 584.676C862.605 585.048 862.42 585.531 862.42 586.032C862.42 586.533 862.605 587.016 862.94 587.389C863.275 587.761 863.736 587.996 864.234 588.05H910.842C911.34 587.996 911.801 587.761 912.136 587.389C912.47 587.016 912.656 586.533 912.656 586.032C912.656 585.531 912.47 585.048 912.136 584.676C911.801 584.303 911.34 584.068 910.842 584.015Z" fill="#FFFF00" stroke="black" stroke-width="0.5"/>
<path d="M909.81 588.084H865.288C864.805 588.157 864.365 588.401 864.046 588.771C863.728 589.141 863.553 589.613 863.553 590.101C863.553 590.59 863.728 591.062 864.046 591.432C864.365 591.802 864.805 592.046 865.288 592.119H909.81C910.293 592.046 910.734 591.802 911.052 591.432C911.371 591.062 911.546 590.59 911.546 590.101C911.546 589.613 911.371 589.141 911.052 588.771C910.734 588.401 910.293 588.157 909.81 588.084V588.084Z" fill="#FFFF00" stroke="black" stroke-width="0.5"/>
<path d="M895.426 557.73H891.918V560.218H889.35V557.673H885.751V560.206H883.172V557.662H879.572V563.393C879.572 563.596 879.613 563.796 879.693 563.983C879.773 564.169 879.89 564.337 880.037 564.476C880.184 564.616 880.358 564.724 880.548 564.794C880.738 564.864 880.94 564.894 881.143 564.883H893.752C894.167 564.89 894.569 564.737 894.874 564.455C895.18 564.173 895.365 563.785 895.391 563.37V557.639L895.426 557.73Z" fill="#FFFF00" stroke="black" stroke-width="0.5"/>
<path d="M882.185 565.445L881.395 583.923H893.729L892.915 565.434L882.185 565.491" fill="#FFFF00"/>
<path d="M882.185 565.445L881.395 583.923H893.729L892.915 565.434L882.185 565.491" stroke="black" stroke-width="0.5"/>
<path d="M897.237 574.009L896.858 583.97H908.688L908.344 573.997L897.237 574.009Z" fill="#FFFF00" stroke="black" stroke-width="0.5"/>
<path d="M866.836 574.009L866.458 583.97H878.276L877.944 573.997L866.836 574.009Z" fill="#FFFF00" stroke="black" stroke-width="0.5"/>
<path d="M910.532 566.787H907.093V569.286H904.582V566.73H901.052V569.274H898.541V566.718H895.011V572.45C895.009 572.65 895.048 572.848 895.125 573.033C895.202 573.217 895.316 573.384 895.46 573.524C895.603 573.663 895.774 573.772 895.961 573.843C896.147 573.915 896.347 573.948 896.547 573.94H908.915C909.326 573.941 909.72 573.784 910.019 573.503C910.317 573.221 910.497 572.836 910.52 572.427V566.695L910.532 566.787Z" fill="#FFFF00" stroke="black" stroke-width="0.5"/>
<path d="M880.133 566.787H876.694V569.286H874.16V566.73H870.63V569.274H868.108V566.718H864.589V572.45C864.587 572.65 864.626 572.848 864.703 573.033C864.78 573.217 864.894 573.384 865.038 573.524C865.181 573.663 865.352 573.772 865.539 573.843C865.726 573.915 865.925 573.948 866.125 573.94H878.505C878.914 573.94 879.308 573.784 879.604 573.502C879.901 573.22 880.078 572.835 880.098 572.427V566.695L880.133 566.787Z" fill="#FFFF00" stroke="black" stroke-width="0.5"/>
<path d="M888.752 571.291C888.769 571.118 888.749 570.943 888.694 570.777C888.639 570.612 888.55 570.46 888.433 570.331C888.316 570.202 888.173 570.099 888.014 570.029C887.855 569.958 887.682 569.922 887.508 569.922C887.334 569.922 887.162 569.958 887.003 570.029C886.843 570.099 886.701 570.202 886.583 570.331C886.466 570.46 886.377 570.612 886.323 570.777C886.268 570.943 886.248 571.118 886.265 571.291V575.693H888.752V571.291Z" fill="black"/>
<path d="M904.022 577.677C904.022 577.364 903.897 577.063 903.676 576.842C903.454 576.62 903.154 576.496 902.841 576.496C902.528 576.496 902.227 576.62 902.006 576.842C901.785 577.063 901.66 577.364 901.66 577.677V581.116H904.022V577.677Z" fill="black"/>
<path d="M873.53 577.677C873.53 577.364 873.406 577.063 873.184 576.842C872.963 576.62 872.663 576.496 872.35 576.496C872.036 576.496 871.736 576.62 871.515 576.842C871.293 577.063 871.169 577.364 871.169 577.677V581.116H873.53V577.677Z" fill="black"/>
<path d="M899.379 743.626C899.001 727.807 887.767 724.059 887.687 724.013C887.606 723.967 875.559 728.037 875.605 743.775L899.379 743.626Z" fill="#FFFF00"/>
<path d="M909.065 724.288L911.025 742.479H899.161C899.047 727.44 887.767 724.93 887.492 724.987C887.217 725.044 876.029 728.311 875.765 742.479H863.844L865.999 724.139L909.042 724.242L909.065 724.288Z" fill="#FFFF00" stroke="black" stroke-width="0.5"/>
<path d="M911.816 742.629H863.259C862.747 742.739 862.288 743.022 861.959 743.43C861.63 743.838 861.45 744.346 861.45 744.87C861.45 745.394 861.63 745.902 861.959 746.31C862.288 746.718 862.747 747 863.259 747.111H911.816C912.329 747 912.788 746.718 913.117 746.31C913.446 745.902 913.625 745.394 913.625 744.87C913.625 744.346 913.446 743.838 913.117 743.43C912.788 743.022 912.329 742.739 911.816 742.629Z" fill="#FFFF00" stroke="black" stroke-width="0.5"/>
<path d="M894.165 742.479C894.165 732.988 887.688 730.306 887.654 730.306C887.619 730.306 880.948 733.08 880.891 742.479H894.165" fill="#FFFF00"/>
<path d="M894.165 742.479C894.165 732.988 887.688 730.306 887.654 730.306C887.619 730.306 880.948 733.08 880.891 742.479H894.165" stroke="black" stroke-width="0.5"/>
<path d="M910.842 716.746H864.233C863.742 716.81 863.291 717.051 862.964 717.423C862.637 717.795 862.457 718.274 862.457 718.769C862.457 719.265 862.637 719.743 862.964 720.115C863.291 720.488 863.742 720.728 864.233 720.793H910.842C911.333 720.728 911.784 720.488 912.111 720.115C912.438 719.743 912.618 719.265 912.618 718.769C912.618 718.274 912.438 717.795 912.111 717.423C911.784 717.051 911.333 716.81 910.842 716.746V716.746Z" fill="#FFFF00" stroke="black" stroke-width="0.5"/>
<path d="M909.81 720.85H865.287C864.809 720.93 864.375 721.178 864.062 721.548C863.749 721.919 863.577 722.388 863.577 722.873C863.577 723.358 863.749 723.827 864.062 724.197C864.375 724.568 864.809 724.815 865.287 724.896H909.81C910.288 724.815 910.722 724.568 911.035 724.197C911.348 723.827 911.52 723.358 911.52 722.873C911.52 722.388 911.348 721.919 911.035 721.548C910.722 721.178 910.288 720.93 909.81 720.85V720.85Z" fill="#FFFF00" stroke="black" stroke-width="0.5"/>
<path d="M895.426 690.472H891.918V692.971H889.35V690.426H885.751V692.959H883.172V690.415H879.572V696.146C879.572 696.349 879.613 696.549 879.693 696.735C879.773 696.922 879.89 697.09 880.037 697.229C880.184 697.369 880.358 697.477 880.548 697.547C880.738 697.617 880.94 697.647 881.143 697.636H893.752C894.167 697.643 894.569 697.49 894.874 697.208C895.18 696.926 895.365 696.538 895.391 696.123V690.392L895.426 690.472Z" fill="#FFFF00" stroke="black" stroke-width="0.5"/>
<path d="M882.185 698.174L881.395 716.664H893.729L892.915 698.174H882.185" fill="#FFFF00"/>
<path d="M882.185 698.174L881.395 716.664H893.729L892.915 698.174H882.185" stroke="black" stroke-width="0.5"/>
<path d="M897.237 706.749L896.858 716.71H908.688L908.344 706.737L897.237 706.749Z" fill="#FFFF00" stroke="black" stroke-width="0.5"/>
<path d="M866.836 706.749L866.458 716.71H878.276L877.944 706.737L866.836 706.749Z" fill="#FFFF00" stroke="black" stroke-width="0.5"/>
<path d="M910.532 699.528H907.093V702.027H904.582V699.471H901.052V702.016H898.541V699.459H895.011V705.191C895.009 705.391 895.048 705.589 895.125 705.774C895.202 705.959 895.316 706.126 895.46 706.265C895.603 706.404 895.774 706.513 895.961 706.584C896.147 706.656 896.347 706.689 896.547 706.681H908.915C909.326 706.682 909.72 706.525 910.019 706.244C910.317 705.963 910.497 705.578 910.52 705.168V699.437L910.532 699.528Z" fill="#FFFF00" stroke="black" stroke-width="0.5"/>
<path d="M880.133 699.528H876.694V702.027H874.16V699.471H870.63V702.016H868.108V699.459H864.589V705.191C864.587 705.391 864.626 705.589 864.703 705.774C864.78 705.959 864.894 706.126 865.038 706.265C865.181 706.404 865.352 706.513 865.539 706.584C865.726 706.656 865.925 706.689 866.125 706.681H878.505C878.914 706.682 879.308 706.525 879.604 706.243C879.901 705.961 880.078 705.577 880.098 705.168V699.437L880.133 699.528Z" fill="#FFFF00" stroke="black" stroke-width="0.5"/>
<path d="M888.752 704.02C888.769 703.847 888.749 703.672 888.694 703.507C888.639 703.342 888.55 703.19 888.433 703.061C888.316 702.932 888.173 702.829 888.014 702.758C887.855 702.688 887.682 702.651 887.508 702.651C887.334 702.651 887.162 702.688 887.003 702.758C886.843 702.829 886.701 702.932 886.583 703.061C886.466 703.19 886.377 703.342 886.323 703.507C886.268 703.672 886.248 703.847 886.265 704.02V708.434H888.752V704.032" fill="black"/>
<path d="M904.022 710.416C904.022 710.103 903.897 709.803 903.676 709.581C903.454 709.36 903.154 709.235 902.841 709.235C902.528 709.235 902.227 709.36 902.006 709.581C901.785 709.803 901.66 710.103 901.66 710.416V713.855H904.022V710.416Z" fill="black"/>
<path d="M873.53 710.416C873.53 710.103 873.406 709.803 873.184 709.581C872.963 709.36 872.663 709.235 872.35 709.235C872.036 709.235 871.736 709.36 871.515 709.581C871.293 709.803 871.169 710.103 871.169 710.416V713.855H873.53V710.416Z" fill="black"/>
<path d="M847.624 881.801C858.582 870.338 853.355 859.769 853.355 859.677C853.355 859.586 841.95 853.946 830.808 865.031L847.67 881.801" fill="#FFFF00"/>
<path d="M868.156 875.059L856.693 889.262L848.313 880.859C858.905 870.176 852.738 860.409 852.509 860.226C852.28 860.042 842.089 854.494 831.876 864.226L823.496 855.79L838.008 844.396L868.271 875.025L868.156 875.059Z" fill="#FFFF00" stroke="black" stroke-width="0.5"/>
<path d="M857.139 889.881L822.922 855.412C822.482 855.127 821.958 855.001 821.437 855.055C820.915 855.11 820.429 855.342 820.057 855.711C819.686 856.081 819.453 856.568 819.396 857.089C819.34 857.61 819.464 858.135 819.747 858.575L853.964 893.033C854.403 893.314 854.924 893.436 855.442 893.381C855.96 893.326 856.444 893.095 856.814 892.728C857.184 892.361 857.417 891.879 857.476 891.362C857.536 890.844 857.417 890.322 857.139 889.881V889.881Z" fill="#FFFF00" stroke="black" stroke-width="0.5"/>
<path d="M844.771 877.294C851.466 870.565 848.841 864.111 848.818 864.088C848.795 864.065 842.124 861.28 835.406 867.86L844.771 877.294" fill="#FFFF00"/>
<path d="M844.771 877.294C851.466 870.565 848.841 864.111 848.818 864.088C848.795 864.065 842.124 861.28 835.406 867.86L844.771 877.294" stroke="black" stroke-width="0.5"/>
<path d="M874.735 871.013L841.94 837.977C841.551 837.658 841.059 837.495 840.557 837.519C840.056 837.543 839.581 837.751 839.224 838.105C838.868 838.459 838.655 838.932 838.627 839.433C838.599 839.935 838.759 840.429 839.074 840.82L871.87 873.799C872.258 874.117 872.75 874.28 873.252 874.256C873.754 874.233 874.229 874.024 874.585 873.67C874.942 873.317 875.154 872.843 875.182 872.342C875.21 871.84 875.051 871.347 874.735 870.956V871.013Z" fill="#FFFF00" stroke="black" stroke-width="0.5"/>
<path d="M871.17 873.122L839.773 841.53C839.38 841.245 838.899 841.11 838.416 841.148C837.933 841.186 837.479 841.394 837.136 841.736C836.792 842.078 836.582 842.532 836.542 843.015C836.502 843.498 836.636 843.979 836.919 844.373L868.293 875.976C868.687 876.256 869.168 876.388 869.651 876.348C870.133 876.308 870.586 876.099 870.929 875.757C871.272 875.415 871.483 874.964 871.525 874.481C871.567 873.999 871.437 873.518 871.158 873.122H871.17Z" fill="#FFFF00" stroke="black" stroke-width="0.5"/>
<path d="M882.565 841.53L880.077 839.042L878.312 840.807L876.455 838.985L878.266 837.185L875.721 834.64L873.922 836.429L872.111 834.606L873.922 832.806L871.377 830.25L867.342 834.331C867.195 834.469 867.078 834.636 866.998 834.821C866.917 835.007 866.876 835.206 866.876 835.408C866.876 835.61 866.917 835.81 866.998 835.995C867.078 836.181 867.195 836.348 867.342 836.486L876.249 845.461C876.536 845.76 876.926 845.938 877.34 845.957C877.754 845.976 878.159 845.836 878.473 845.565L882.519 841.552L882.565 841.53Z" fill="#FFFF00" stroke="black" stroke-width="0.5"/>
<path d="M867.764 837.575L854.089 850.035L862.801 858.759L875.307 845.141L867.718 837.575" fill="#FFFF00"/>
<path d="M867.764 837.575L854.089 850.035L862.801 858.759L875.307 845.141L867.718 837.575" stroke="black" stroke-width="0.5"/>
<path d="M872.282 854.288L864.991 861.04L873.325 869.431L880.203 862.175L872.373 854.288H872.282Z" fill="#FFFF00" stroke="black" stroke-width="0.5"/>
<path d="M850.859 832.714L843.522 839.466L851.856 847.856L858.734 840.6L850.905 832.714H850.859Z" fill="#FFFF00" stroke="black" stroke-width="0.5"/>
<path d="M886.771 858.633L884.341 856.202L882.564 857.956L880.798 856.18L882.61 854.38L880.122 851.881L878.311 853.681L876.534 851.892L878.345 850.093L875.858 847.594L871.777 851.652C871.633 851.791 871.519 851.957 871.441 852.141C871.363 852.325 871.322 852.523 871.322 852.723C871.322 852.923 871.363 853.121 871.441 853.306C871.519 853.49 871.633 853.656 871.777 853.795L880.5 862.576C880.786 862.868 881.173 863.038 881.581 863.051C881.989 863.063 882.387 862.918 882.69 862.645L886.748 858.633H886.771Z" fill="#FFFF00" stroke="black" stroke-width="0.5"/>
<path d="M865.358 837.059L862.927 834.629L861.151 836.383L859.385 834.606L861.197 832.807L858.709 830.308L856.898 832.107L855.121 830.319L856.944 828.519L854.445 826.021L850.364 830.078C850.22 830.217 850.106 830.384 850.028 830.568C849.949 830.752 849.909 830.95 849.909 831.15C849.909 831.35 849.949 831.548 850.028 831.732C850.106 831.916 850.22 832.083 850.364 832.222L859.087 841.003C859.376 841.293 859.765 841.461 860.174 841.474C860.583 841.487 860.982 841.343 861.288 841.071L865.335 837.059H865.358Z" fill="#FFFF00" stroke="black" stroke-width="0.5"/>
<path d="M868.235 846.346C868.361 846.234 868.463 846.098 868.534 845.945C868.605 845.793 868.645 845.627 868.65 845.459C868.655 845.291 868.626 845.123 868.564 844.967C868.502 844.81 868.409 844.667 868.291 844.548C868.172 844.429 868.03 844.335 867.874 844.272C867.718 844.209 867.551 844.179 867.382 844.183C867.214 844.187 867.048 844.225 866.895 844.296C866.742 844.366 866.605 844.467 866.493 844.592L863.363 847.687L865.117 849.452L868.235 846.346Z" fill="black"/>
<path d="M874.472 861.694C874.583 861.584 874.671 861.454 874.731 861.31C874.791 861.166 874.823 861.012 874.823 860.856C874.824 860.7 874.793 860.545 874.734 860.401C874.675 860.257 874.588 860.125 874.478 860.015C874.368 859.904 874.238 859.816 874.094 859.756C873.95 859.696 873.796 859.665 873.64 859.664C873.484 859.664 873.329 859.694 873.185 859.753C873.041 859.812 872.909 859.899 872.799 860.009L870.392 862.405L872.054 864.09L874.472 861.694Z" fill="black"/>
<path d="M852.979 840.063C853.203 839.843 853.329 839.543 853.332 839.229C853.334 838.915 853.211 838.613 852.991 838.389C852.77 838.166 852.47 838.039 852.156 838.037C851.842 838.035 851.541 838.158 851.317 838.378L848.898 840.785L850.572 842.459L852.979 840.063Z" fill="black"/>
<path d="M736.135 748.359C736.109 754.398 738.374 760.223 742.474 764.659C744.385 766.799 746.726 768.511 749.344 769.684C751.963 770.856 754.799 771.462 757.668 771.462C760.537 771.462 763.374 770.856 765.992 769.684C768.61 768.511 770.952 766.799 772.862 764.659C776.956 760.217 779.213 754.388 779.178 748.347V717.558H736.215L736.135 748.359Z" fill="#003399"/>
<path d="M745.994 733.514C748.343 733.514 750.247 731.61 750.247 729.262C750.247 726.913 748.343 725.009 745.994 725.009C743.645 725.009 741.741 726.913 741.741 729.262C741.741 731.61 743.645 733.514 745.994 733.514Z" fill="white"/>
<path d="M769.824 733.536C772.173 733.536 774.077 731.632 774.077 729.283C774.077 726.934 772.173 725.03 769.824 725.03C767.475 725.03 765.571 726.934 765.571 729.283C765.571 731.632 767.475 733.536 769.824 733.536Z" fill="white"/>
<path d="M757.88 744.977C760.228 744.977 762.133 743.073 762.133 740.724C762.133 738.376 760.228 736.472 757.88 736.472C755.531 736.472 753.627 738.376 753.627 740.724C753.627 743.073 755.531 744.977 757.88 744.977Z" fill="white"/>
<path d="M745.994 756.955C748.343 756.955 750.247 755.051 750.247 752.702C750.247 750.353 748.343 748.449 745.994 748.449C743.645 748.449 741.741 750.353 741.741 752.702C741.741 755.051 743.645 756.955 745.994 756.955Z" fill="white"/>
<path d="M769.802 756.922C772.15 756.922 774.054 755.018 774.054 752.669C774.054 750.32 772.15 748.416 769.802 748.416C767.453 748.416 765.549 750.32 765.549 752.669C765.549 755.018 767.453 756.922 769.802 756.922Z" fill="white"/>
<path d="M736.135 673.85C736.109 679.89 738.374 685.715 742.474 690.15C744.385 692.29 746.726 694.002 749.344 695.175C751.963 696.347 754.799 696.953 757.668 696.953C760.537 696.953 763.374 696.347 765.992 695.175C768.61 694.002 770.952 692.29 772.862 690.15C776.954 685.711 779.21 679.887 779.178 673.85V643.003H736.215L736.135 673.85Z" fill="#003399"/>
<path d="M745.994 658.96C748.343 658.96 750.247 657.056 750.247 654.707C750.247 652.358 748.343 650.454 745.994 650.454C743.645 650.454 741.741 652.358 741.741 654.707C741.741 657.056 743.645 658.96 745.994 658.96Z" fill="white"/>
<path d="M769.824 658.982C772.173 658.982 774.077 657.078 774.077 654.729C774.077 652.381 772.173 650.477 769.824 650.477C767.475 650.477 765.571 652.381 765.571 654.729C765.571 657.078 767.475 658.982 769.824 658.982Z" fill="white"/>
<path d="M757.88 670.423C760.228 670.423 762.133 668.518 762.133 666.17C762.133 663.821 760.228 661.917 757.88 661.917C755.531 661.917 753.627 663.821 753.627 666.17C753.627 668.518 755.531 670.423 757.88 670.423Z" fill="white"/>
<path d="M745.994 682.4C748.343 682.4 750.247 680.496 750.247 678.147C750.247 675.799 748.343 673.895 745.994 673.895C743.645 673.895 741.741 675.799 741.741 678.147C741.741 680.496 743.645 682.4 745.994 682.4Z" fill="white"/>
<path d="M769.802 682.367C772.15 682.367 774.054 680.463 774.054 678.114C774.054 675.765 772.15 673.861 769.802 673.861C767.453 673.861 765.549 675.765 765.549 678.114C765.549 680.463 767.453 682.367 769.802 682.367Z" fill="white"/>
<path d="M676.527 748.359C676.506 754.398 678.771 760.221 682.866 764.659C684.777 766.799 687.119 768.511 689.737 769.684C692.355 770.856 695.192 771.462 698.061 771.462C700.93 771.462 703.766 770.856 706.384 769.684C709.003 768.511 711.344 766.799 713.255 764.659C717.349 760.217 719.606 754.388 719.571 748.347V717.558H676.608L676.527 748.359Z" fill="#003399"/>
<path d="M686.387 733.514C688.735 733.514 690.639 731.61 690.639 729.262C690.639 726.913 688.735 725.009 686.387 725.009C684.038 725.009 682.134 726.913 682.134 729.262C682.134 731.61 684.038 733.514 686.387 733.514Z" fill="white"/>
<path d="M710.217 733.537C712.565 733.537 714.469 731.633 714.469 729.284C714.469 726.935 712.565 725.031 710.217 725.031C707.868 725.031 705.964 726.935 705.964 729.284C705.964 731.633 707.868 733.537 710.217 733.537Z" fill="white"/>
<path d="M698.284 744.977C700.633 744.977 702.537 743.073 702.537 740.724C702.537 738.376 700.633 736.472 698.284 736.472C695.935 736.472 694.031 738.376 694.031 740.724C694.031 743.073 695.935 744.977 698.284 744.977Z" fill="white"/>
<path d="M686.387 756.955C688.735 756.955 690.639 755.051 690.639 752.702C690.639 750.353 688.735 748.449 686.387 748.449C684.038 748.449 682.134 750.353 682.134 752.702C682.134 755.051 684.038 756.955 686.387 756.955Z" fill="white"/>
<path d="M710.194 756.922C712.543 756.922 714.447 755.018 714.447 752.669C714.447 750.32 712.543 748.416 710.194 748.416C707.845 748.416 705.941 750.32 705.941 752.669C705.941 755.018 707.845 756.922 710.194 756.922Z" fill="white"/>
<path d="M795.582 748.359C795.559 754.413 797.832 760.25 801.944 764.693C803.855 766.833 806.196 768.546 808.815 769.718C811.433 770.89 814.269 771.496 817.138 771.496C820.007 771.496 822.844 770.89 825.462 769.718C828.081 768.546 830.422 766.833 832.333 764.693C836.41 760.257 838.658 754.442 838.626 748.416V717.558H795.662L795.582 748.359Z" fill="#003399"/>
<path d="M805.441 733.514C807.79 733.514 809.694 731.61 809.694 729.262C809.694 726.913 807.79 725.009 805.441 725.009C803.092 725.009 801.188 726.913 801.188 729.262C801.188 731.61 803.092 733.514 805.441 733.514Z" fill="white"/>
<path d="M829.271 733.537C831.62 733.537 833.524 731.633 833.524 729.284C833.524 726.935 831.62 725.031 829.271 725.031C826.923 725.031 825.019 726.935 825.019 729.284C825.019 731.633 826.923 733.537 829.271 733.537Z" fill="white"/>
<path d="M817.339 744.977C819.687 744.977 821.592 743.073 821.592 740.724C821.592 738.376 819.687 736.472 817.339 736.472C814.99 736.472 813.086 738.376 813.086 740.724C813.086 743.073 814.99 744.977 817.339 744.977Z" fill="white"/>
<path d="M805.441 756.955C807.79 756.955 809.694 755.051 809.694 752.702C809.694 750.353 807.79 748.449 805.441 748.449C803.092 748.449 801.188 750.353 801.188 752.702C801.188 755.051 803.092 756.955 805.441 756.955Z" fill="white"/>
<path d="M829.249 756.922C831.598 756.922 833.502 755.018 833.502 752.669C833.502 750.32 831.598 748.416 829.249 748.416C826.9 748.416 824.996 750.32 824.996 752.669C824.996 755.018 826.9 756.922 829.249 756.922Z" fill="white"/>
<path d="M736.135 822.273C736.109 828.313 738.374 834.138 742.474 838.574C744.385 840.713 746.726 842.426 749.344 843.598C751.963 844.77 754.799 845.376 757.668 845.376C760.537 845.376 763.374 844.77 765.992 843.598C768.61 842.426 770.952 840.713 772.862 838.574C776.956 834.132 779.213 828.302 779.178 822.262V791.449H736.215L736.135 822.296" fill="#003399"/>
<path d="M745.994 807.406C748.343 807.406 750.247 805.502 750.247 803.153C750.247 800.804 748.343 798.9 745.994 798.9C743.645 798.9 741.741 800.804 741.741 803.153C741.741 805.502 743.645 807.406 745.994 807.406Z" fill="white"/>
<path d="M769.824 807.428C772.173 807.428 774.077 805.524 774.077 803.176C774.077 800.827 772.173 798.923 769.824 798.923C767.475 798.923 765.571 800.827 765.571 803.176C765.571 805.524 767.475 807.428 769.824 807.428Z" fill="white"/>
<path d="M757.88 818.869C760.228 818.869 762.133 816.965 762.133 814.616C762.133 812.267 760.228 810.363 757.88 810.363C755.531 810.363 753.627 812.267 753.627 814.616C753.627 816.965 755.531 818.869 757.88 818.869Z" fill="white"/>
<path d="M745.994 830.846C748.343 830.846 750.247 828.942 750.247 826.594C750.247 824.245 748.343 822.341 745.994 822.341C743.645 822.341 741.741 824.245 741.741 826.594C741.741 828.942 743.645 830.846 745.994 830.846Z" fill="white"/>
<path d="M769.802 830.813C772.15 830.813 774.054 828.909 774.054 826.56C774.054 824.212 772.15 822.308 769.802 822.308C767.453 822.308 765.549 824.212 765.549 826.56C765.549 828.909 767.453 830.813 769.802 830.813Z" fill="white"/>
</g>
</svg>
