<svg height="125" viewBox="0 0 125 125" width="125" xmlns="http://www.w3.org/2000/svg" xmlns:xlink="http://www.w3.org/1999/xlink"><linearGradient id="a" x1="0%" x2="100%" y1="50%" y2="50%"><stop offset="0" stop-color="#929297"/><stop offset=".780357361" stop-color="#88878d"/><stop offset="1" stop-color="#bab9c6"/></linearGradient><linearGradient id="b" x1="0%" x2="100%" y1="50%" y2="50%"><stop offset="0" stop-color="#919fb7"/><stop offset="1" stop-color="#f8fafe"/></linearGradient><g fill="none" fill-rule="evenodd"><path d="m59.5815699 27.8478255c-20.6198149-.0848242-38.8491084 10.2915035-49.8824094 26.0440015-4.46789134 6.3768858-7.75621818 13.6515518-9.54537808 21.5010342-.10194111-1.4407216-.15378242-2.895367-.15378242-4.3621852 0-33.4658547 26.9853415-60.5952902 60.2733545-60.5952902 36.1672248 0 61.6016455 25.1025237 61.6016455 56.0680559 0 24.1099027-15.418981 44.6655033-37.0556397 52.5855683-5.2584793 1.803279-10.6313069 2.78599-16.2324396 2.78599-26.0182495 0-48.4958025-21.204616-48.4958025-47.361836 0-4.4938249.6225382-8.8414715 3.1712367-12.9605297-.9564199 2.5407046-1.0928452 4.4262366-1.0928452 6.3438026 0 21.7335723 18.2177334 38.6556161 39.8358378 38.6556161s39.1430405-17.6185414 39.1430405-39.3521137c0-18.4054497-12.568605-33.8596648-29.5479009-38.1611577-3.46107-.6957579-6.9995181-1.1744618-12.0189172-1.1909561z" fill="url(#a)" transform="matrix(-1 0 0 -1 121.875 132.310386)"/><path d="m59.5815699 17.4124397c-20.6198149-.0848243-38.8491084 10.2915035-49.8824094 26.0440015-4.46789134 6.3768857-7.75621818 13.6515517-9.54537808 21.5010342-.10194111-1.4407217-.15378242-2.895367-.15378242-4.3621852 0-33.4658547 26.9853415-60.5952902 60.2733545-60.5952902 36.1672248 0 61.6016455 25.1025237 61.6016455 56.0680559 0 24.1099026-15.418981 44.6655031-37.0556397 52.5855681-5.2584793 1.803279-10.6313069 2.78599-16.2324396 2.78599-26.0182495 0-48.4958025-21.2046161-48.4958025-47.3618359 0-4.4938248.6225382-8.8414714 3.1712367-12.9605297-.9564199 2.5407046-1.0928452 4.4262366-1.0928452 6.3438027 0 21.7335723 18.2177334 38.6556161 39.8358378 38.6556161s39.1430405-17.6185414 39.1430405-39.3521137c0-18.4054497-12.568605-33.8596649-29.5479009-38.1611577-3.46107-.695758-6.9995181-1.1744619-12.0189172-1.1909561z" fill="url(#b)"/></g></svg>